LisuBosa-ExtraLight.ufo
<glyph name="exclam" format="2">
  <advance width="253"/>
  <unicode hex="0021"/>
  <outline>
    <contour>
      <point x="126" y="-11" type="curve" smooth="yes"/>
      <point x="161" y="-11"/>
      <point x="190" y="17"/>
      <point x="190" y="52" type="curve" smooth="yes"/>
      <point x="190" y="88"/>
      <point x="161" y="117"/>
      <point x="126" y="117" type="curve" smooth="yes"/>
      <point x="90" y="117"/>
      <point x="61" y="88"/>
      <point x="61" y="52" type="curve" smooth="yes"/>
      <point x="61" y="17"/>
      <point x="90" y="-11"/>
    </contour>
    <contour>
      <point x="159" y="187" type="line"/>
      <point x="168" y="562" type="line"/>
      <point x="84" y="562" type="line"/>
      <point x="95" y="187" type="line"/>
    </contour>
  </outline>
</glyph>
<glyph name="quotedbl" format="2">
  <advance width="311"/>
  <unicode hex="0022"/>
  <outline>
    <contour>
      <point x="46" y="582" type="line"/>
      <point x="121" y="582" type="line"/>
      <point x="109" y="359" type="line"/>
      <point x="57" y="359" type="line"/>
    </contour>
    <contour>
      <point x="190" y="582" type="line"/>
      <point x="265" y="582" type="line"/>
      <point x="253" y="359" type="line"/>
      <point x="201" y="359" type="line"/>
    </contour>
  </outline>
</glyph>
<glyph name="dollar" format="2">
  <advance width="449"/>
  <unicode hex="0024"/>
  <outline>
    <contour>
      <point x="224" y="35" type="curve" smooth="yes"/>
      <point x="188" y="35"/>
      <point x="146" y="39"/>
      <point x="104" y="56" type="curve"/>
      <point x="153" y="23" type="line"/>
      <point x="137" y="93" type="line" smooth="yes"/>
      <point x="126" y="141"/>
      <point x="106" y="153"/>
      <point x="84" y="153" type="curve" smooth="yes"/>
      <point x="64" y="153"/>
      <point x="51" y="143"/>
      <point x="42" y="125" type="curve"/>
      <point x="46" y="45"/>
      <point x="121" y="-8"/>
      <point x="219" y="-8" type="curve" smooth="yes"/>
      <point x="344" y="-8"/>
      <point x="420" y="60"/>
      <point x="420" y="159" type="curve" smooth="yes"/>
      <point x="420" y="229"/>
      <point x="382" y="281"/>
      <point x="258" y="324" type="curve" smooth="yes"/>
      <point x="223" y="336" type="line" smooth="yes"/>
      <point x="157" y="359"/>
      <point x="121" y="386"/>
      <point x="121" y="430" type="curve" smooth="yes"/>
      <point x="121" y="499"/>
      <point x="173" y="533"/>
      <point x="241" y="533" type="curve" smooth="yes"/>
      <point x="269" y="533"/>
      <point x="302" y="528"/>
      <point x="341" y="512" type="curve"/>
      <point x="293" y="546" type="line"/>
      <point x="308" y="476" type="line" smooth="yes"/>
      <point x="318" y="428"/>
      <point x="342" y="415"/>
      <point x="363" y="415" type="curve" smooth="yes"/>
      <point x="380" y="415"/>
      <point x="396" y="424"/>
      <point x="403" y="443" type="curve"/>
      <point x="398" y="523"/>
      <point x="324" y="578"/>
      <point x="231" y="578" type="curve" smooth="yes"/>
      <point x="125" y="578"/>
      <point x="49" y="504"/>
      <point x="49" y="410" type="curve" smooth="yes"/>
      <point x="49" y="333"/>
      <point x="106" y="288"/>
      <point x="203" y="254" type="curve" smooth="yes"/>
      <point x="237" y="242" type="line" smooth="yes"/>
      <point x="315" y="214"/>
      <point x="348" y="194"/>
      <point x="348" y="141" type="curve" smooth="yes"/>
      <point x="348" y="73"/>
      <point x="299" y="35"/>
    </contour>
    <contour>
      <point x="254" y="296" type="line"/>
      <point x="254" y="661" type="line"/>
      <point x="215" y="661" type="line"/>
      <point x="215" y="296" type="line"/>
    </contour>
    <contour>
      <point x="212" y="-85" type="line"/>
      <point x="252" y="-85" type="line"/>
      <point x="252" y="296" type="line"/>
      <point x="212" y="296" type="line"/>
    </contour>
  </outline>
</glyph>
<glyph name="parenright" format="2">
  <advance width="288"/>
  <unicode hex="0029"/>
  <outline>
    <contour>
      <point x="252" y="268" type="curve" smooth="yes"/>
      <point x="252" y="479"/>
      <point x="202" y="606"/>
      <point x="31" y="697" type="curve"/>
      <point x="31" y="642" type="line"/>
      <point x="155" y="572"/>
      <point x="170" y="425"/>
      <point x="170" y="268" type="curve" smooth="yes"/>
      <point x="170" y="110"/>
      <point x="155" y="-37"/>
      <point x="31" y="-107" type="curve"/>
      <point x="31" y="-162" type="line"/>
      <point x="202" y="-71"/>
      <point x="252" y="57"/>
    </contour>
  </outline>
</glyph>
<glyph name="plus" format="2">
  <advance width="462"/>
  <unicode hex="002B"/>
  <outline>
    <contour>
      <point x="427" y="303" type="line"/>
      <point x="427" y="242" type="line"/>
      <point x="262" y="242" type="line"/>
      <point x="262" y="76" type="line"/>
      <point x="201" y="76" type="line"/>
      <point x="201" y="242" type="line"/>
      <point x="36" y="242" type="line"/>
      <point x="36" y="303" type="line"/>
      <point x="201" y="303" type="line"/>
      <point x="201" y="468" type="line"/>
      <point x="262" y="468" type="line"/>
      <point x="262" y="303" type="line"/>
    </contour>
  </outline>
</glyph>
<glyph name="slash" format="2">
  <advance width="278"/>
  <unicode hex="002F"/>
  <outline>
    <contour>
      <point x="249" y="667" type="line"/>
      <point x="301" y="667" type="line"/>
      <point x="29" y="-120" type="line"/>
      <point x="-23" y="-120" type="line"/>
    </contour>
  </outline>
</glyph>
<glyph name="one" format="2">
  <advance width="434"/>
  <unicode hex="0031"/>
  <outline>
    <contour>
      <point x="285" y="0" type="line"/>
      <point x="220" y="0" type="line"/>
      <point x="220" y="415" type="line"/>
      <point x="183" y="377"/>
      <point x="144" y="352"/>
      <point x="102" y="334" type="curve"/>
      <point x="102" y="399" type="line"/>
      <point x="169" y="434"/>
      <point x="212" y="478"/>
      <point x="234" y="531" type="curve"/>
      <point x="285" y="531" type="line"/>
    </contour>
  </outline>
</glyph>
<glyph name="nine" format="2">
  <advance width="434"/>
  <unicode hex="0039"/>
  <outline>
    <contour>
      <point x="387" y="279" type="curve" smooth="yes"/>
      <point x="387" y="91"/>
      <point x="330" y="-8"/>
      <point x="204" y="-8" type="curve" smooth="yes"/>
      <point x="134" y="-8"/>
      <point x="70" y="39"/>
      <point x="56" y="115" type="curve"/>
      <point x="120" y="124" type="line"/>
      <point x="127" y="91"/>
      <point x="160" y="54"/>
      <point x="203" y="54" type="curve" smooth="yes"/>
      <point x="288" y="54"/>
      <point x="318" y="124"/>
      <point x="318" y="234" type="curve" smooth="yes"/>
      <point x="318" y="248" type="line"/>
      <point x="299" y="223"/>
      <point x="252" y="195"/>
      <point x="203" y="195" type="curve" smooth="yes"/>
      <point x="113" y="195"/>
      <point x="46" y="269"/>
      <point x="46" y="359" type="curve" smooth="yes"/>
      <point x="46" y="456"/>
      <point x="113" y="538"/>
      <point x="210" y="538" type="curve" smooth="yes"/>
      <point x="342" y="538"/>
      <point x="387" y="426"/>
    </contour>
    <contour>
      <point x="311" y="364" type="curve" smooth="yes"/>
      <point x="311" y="434"/>
      <point x="270" y="476"/>
      <point x="209" y="476" type="curve" smooth="yes"/>
      <point x="150" y="476"/>
      <point x="111" y="427"/>
      <point x="111" y="364" type="curve" smooth="yes"/>
      <point x="111" y="307"/>
      <point x="146" y="257"/>
      <point x="212" y="257" type="curve" smooth="yes"/>
      <point x="274" y="257"/>
      <point x="311" y="299"/>
    </contour>
  </outline>
</glyph>
<glyph name="colon" format="2">
  <advance width="276"/>
  <unicode hex="003A"/>
  <outline>
    <contour>
      <point x="138" y="322" type="curve" smooth="yes"/>
      <point x="173" y="322"/>
      <point x="202" y="352"/>
      <point x="202" y="387" type="curve" smooth="yes"/>
      <point x="202" y="423"/>
      <point x="173" y="452"/>
      <point x="138" y="452" type="curve" smooth="yes"/>
      <point x="102" y="452"/>
      <point x="73" y="423"/>
      <point x="73" y="387" type="curve" smooth="yes"/>
      <point x="73" y="352"/>
      <point x="102" y="322"/>
    </contour>
    <contour>
      <point x="138" y="-11" type="curve" smooth="yes"/>
      <point x="173" y="-11"/>
      <point x="202" y="17"/>
      <point x="202" y="52" type="curve" smooth="yes"/>
      <point x="202" y="88"/>
      <point x="173" y="117"/>
      <point x="138" y="117" type="curve" smooth="yes"/>
      <point x="102" y="117"/>
      <point x="73" y="88"/>
      <point x="73" y="52" type="curve" smooth="yes"/>
      <point x="73" y="17"/>
      <point x="102" y="-11"/>
    </contour>
  </outline>
</glyph>
<glyph name="less" format="2">
  <advance width="487"/>
  <unicode hex="003C"/>
  <outline>
    <contour>
      <point x="53" y="282" type="line"/>
      <point x="407" y="75" type="line"/>
      <point x="434" y="123" type="line"/>
      <point x="106" y="308" type="line"/>
      <point x="106" y="299" type="line"/>
      <point x="434" y="483" type="line"/>
      <point x="407" y="531" type="line"/>
      <point x="53" y="324" type="line"/>
    </contour>
  </outline>
</glyph>
<glyph name="at" format="2">
  <advance width="765"/>
  <unicode hex="0040"/>
  <outline>
    <contour>
      <point x="310" y="43" type="curve" smooth="yes"/>
      <point x="373" y="43"/>
      <point x="424" y="98"/>
      <point x="474" y="162" type="curve"/>
      <point x="470" y="176" type="line"/>
      <point x="402" y="114"/>
      <point x="370" y="96"/>
      <point x="337" y="96" type="curve" smooth="yes"/>
      <point x="293" y="96"/>
      <point x="273" y="126"/>
      <point x="273" y="184" type="curve" smooth="yes"/>
      <point x="273" y="314"/>
      <point x="358" y="394"/>
      <point x="418" y="394" type="curve" smooth="yes"/>
      <point x="445" y="394"/>
      <point x="469" y="380"/>
      <point x="492" y="338" type="curve"/>
      <point x="518" y="380" type="line"/>
      <point x="486" y="423"/>
      <point x="460" y="436"/>
      <point x="426" y="436" type="curve" smooth="yes"/>
      <point x="324" y="436"/>
      <point x="212" y="299"/>
      <point x="212" y="162" type="curve" smooth="yes"/>
      <point x="212" y="78"/>
      <point x="261" y="43"/>
    </contour>
    <contour>
      <point x="535" y="43" type="curve" smooth="yes"/>
      <point x="613" y="43"/>
      <point x="733" y="119"/>
      <point x="733" y="297" type="curve" smooth="yes"/>
      <point x="733" y="479"/>
      <point x="621" y="607"/>
      <point x="435" y="607" type="curve" smooth="yes"/>
      <point x="209" y="607"/>
      <point x="32" y="425"/>
      <point x="32" y="188" type="curve" smooth="yes"/>
      <point x="32" y="-32"/>
      <point x="181" y="-142"/>
      <point x="365" y="-142" type="curve" smooth="yes"/>
      <point x="418" y="-142"/>
      <point x="483" y="-131"/>
      <point x="537" y="-103" type="curve"/>
      <point x="526" y="-77" type="line"/>
      <point x="485" y="-96"/>
      <point x="440" y="-105"/>
      <point x="384" y="-105" type="curve" smooth="yes"/>
      <point x="227" y="-105"/>
      <point x="87" y="-8"/>
      <point x="87" y="195" type="curve" smooth="yes"/>
      <point x="87" y="393"/>
      <point x="228" y="570"/>
      <point x="429" y="570" type="curve" smooth="yes"/>
      <point x="571" y="570"/>
      <point x="679" y="472"/>
      <point x="679" y="306" type="curve" smooth="yes"/>
      <point x="679" y="148"/>
      <point x="609" y="85"/>
      <point x="545" y="85" type="curve" smooth="yes"/>
      <point x="505" y="85"/>
      <point x="485" y="112"/>
      <point x="494" y="157" type="curve" smooth="yes"/>
      <point x="548" y="421" type="line"/>
      <point x="530" y="436" type="line"/>
      <point x="485" y="414" type="line"/>
      <point x="433" y="140" type="line"/>
      <point x="437" y="126" type="line"/>
      <point x="440" y="80"/>
      <point x="474" y="43"/>
    </contour>
  </outline>
</glyph>
<glyph name="M" format="2">
  <advance width="829"/>
  <unicode hex="004D"/>
  <anchor x="404" y="635" name="aboveUC"/>
  <anchor x="391" y="-20" name="belowLC"/>
  <outline>
    <contour>
      <point x="36" y="0" type="line"/>
      <point x="241" y="0" type="line"/>
      <point x="241" y="36" type="line"/>
      <point x="151" y="50" type="line"/>
      <point x="133" y="50" type="line"/>
      <point x="36" y="36" type="line"/>
    </contour>
    <contour>
      <point x="36" y="579" type="line"/>
      <point x="147" y="565" type="line"/>
      <point x="158" y="565" type="line"/>
      <point x="158" y="616" type="line"/>
      <point x="36" y="616" type="line"/>
    </contour>
    <contour>
      <point x="119" y="0" type="line"/>
      <point x="166" y="0" type="line"/>
      <point x="166" y="342" type="line"/>
      <point x="158" y="616" type="line"/>
      <point x="119" y="616" type="line"/>
    </contour>
    <contour>
      <point x="373" y="0" type="line"/>
      <point x="418" y="0" type="line"/>
      <point x="658" y="616" type="line"/>
      <point x="609" y="616" type="line"/>
      <point x="396" y="64" type="line"/>
      <point x="427" y="64" type="line"/>
      <point x="202" y="616" type="line"/>
      <point x="120" y="616" type="line"/>
    </contour>
    <contour>
      <point x="540" y="0" type="line"/>
      <point x="788" y="0" type="line"/>
      <point x="788" y="36" type="line"/>
      <point x="668" y="50" type="line"/>
      <point x="650" y="50" type="line"/>
      <point x="540" y="36" type="line"/>
    </contour>
    <contour>
      <point x="617" y="0" type="curve"/>
      <point x="703" y="0" type="line"/>
      <point x="701" y="94"/>
      <point x="701" y="190"/>
      <point x="701" y="285" type="curve" smooth="yes"/>
      <point x="701" y="331" type="line" smooth="yes"/>
      <point x="701" y="427"/>
      <point x="701" y="523"/>
      <point x="703" y="616" type="curve"/>
      <point x="620" y="616" type="line"/>
      <point x="620" y="285" type="line" smooth="yes"/>
      <point x="620" y="188"/>
      <point x="620" y="92"/>
    </contour>
    <contour>
      <point x="659" y="565" type="line"/>
      <point x="668" y="565" type="line"/>
      <point x="788" y="579" type="line"/>
      <point x="788" y="616" type="line"/>
      <point x="659" y="616" type="line"/>
    </contour>
  </outline>
</glyph>
<glyph name="R" format="2">
  <advance width="597"/>
  <unicode hex="0052"/>
  <anchor x="282" y="635" name="aboveUC"/>
  <anchor x="326" y="-20" name="belowLC"/>
  <outline>
    <contour>
      <point x="517" y="-9" type="curve" smooth="yes"/>
      <point x="544" y="-9"/>
      <point x="566" y="-5"/>
      <point x="583" y="0" type="curve"/>
      <point x="583" y="36" type="line"/>
      <point x="488" y="47" type="line"/>
      <point x="517" y="30" type="line"/>
      <point x="471" y="183" type="line" smooth="yes"/>
      <point x="447" y="265"/>
      <point x="406" y="296"/>
      <point x="340" y="302" type="curve"/>
      <point x="337" y="295" type="line"/>
      <point x="458" y="305"/>
      <point x="519" y="376"/>
      <point x="519" y="454" type="curve" smooth="yes"/>
      <point x="519" y="556"/>
      <point x="437" y="616"/>
      <point x="296" y="616" type="curve" smooth="yes"/>
      <point x="170" y="616" type="line"/>
      <point x="170" y="574" type="line"/>
      <point x="295" y="574" type="line" smooth="yes"/>
      <point x="391" y="574"/>
      <point x="432" y="531"/>
      <point x="432" y="454" type="curve" smooth="yes"/>
      <point x="432" y="379"/>
      <point x="384" y="326"/>
      <point x="285" y="326" type="curve" smooth="yes"/>
      <point x="170" y="326" type="line"/>
      <point x="170" y="285" type="line"/>
      <point x="257" y="285" type="line" smooth="yes"/>
      <point x="333" y="285"/>
      <point x="368" y="272"/>
      <point x="386" y="197" type="curve" smooth="yes"/>
      <point x="424" y="47" type="line" smooth="yes"/>
      <point x="435" y="5"/>
      <point x="460" y="-9"/>
    </contour>
    <contour>
      <point x="41" y="0" type="line"/>
      <point x="299" y="0" type="line"/>
      <point x="299" y="36" type="line"/>
      <point x="179" y="50" type="line"/>
      <point x="161" y="50" type="line"/>
      <point x="41" y="36" type="line"/>
    </contour>
    <contour>
      <point x="126" y="0" type="curve"/>
      <point x="214" y="0" type="line"/>
      <point x="211" y="94"/>
      <point x="211" y="190"/>
      <point x="211" y="294" type="curve" smooth="yes"/>
      <point x="211" y="322" type="line" smooth="yes"/>
      <point x="211" y="430"/>
      <point x="211" y="520"/>
      <point x="214" y="616" type="curve"/>
      <point x="126" y="616" type="line"/>
      <point x="128" y="521"/>
      <point x="128" y="425"/>
      <point x="128" y="331" type="curve" smooth="yes"/>
      <point x="128" y="285" type="line" smooth="yes"/>
      <point x="128" y="188"/>
      <point x="128" y="92"/>
    </contour>
    <contour>
      <point x="161" y="565" type="line"/>
      <point x="170" y="565" type="line"/>
      <point x="170" y="616" type="line"/>
      <point x="41" y="616" type="line"/>
      <point x="41" y="579" type="line"/>
    </contour>
  </outline>
</glyph>
<glyph name="V" format="2">
  <advance width="621"/>
  <unicode hex="0056"/>
  <anchor x="320" y="635" name="aboveUC"/>
  <anchor x="319" y="-20" name="belowLC"/>
  <outline>
    <contour>
      <point x="299" y="-6" type="line"/>
      <point x="336" y="-6" type="line"/>
      <point x="547" y="616" type="line"/>
      <point x="497" y="616" type="line"/>
      <point x="321" y="95" type="line"/>
      <point x="339" y="95" type="line"/>
      <point x="156" y="616" type="line"/>
      <point x="68" y="616" type="line"/>
    </contour>
    <contour>
      <point x="13" y="579" type="line"/>
      <point x="133" y="565" type="line"/>
      <point x="151" y="565" type="line"/>
      <point x="262" y="575" type="line"/>
      <point x="262" y="616" type="line"/>
      <point x="13" y="616" type="line"/>
    </contour>
    <contour>
      <point x="399" y="575" type="line"/>
      <point x="491" y="565" type="line"/>
      <point x="509" y="565" type="line"/>
      <point x="611" y="579" type="line"/>
      <point x="611" y="616" type="line"/>
      <point x="399" y="616" type="line"/>
    </contour>
  </outline>
</glyph>
<glyph name="W" format="2">
  <advance width="884"/>
  <unicode hex="0057"/>
  <anchor x="459" y="635" name="aboveUC"/>
  <anchor x="459" y="-20" name="belowLC"/>
  <outline>
    <contour>
      <point x="257" y="-6" type="line"/>
      <point x="293" y="-6" type="line"/>
      <point x="453" y="500" type="line"/>
      <point x="436" y="499" type="line"/>
      <point x="606" y="-6" type="line"/>
      <point x="643" y="-6" type="line"/>
      <point x="810" y="616" type="line"/>
      <point x="764" y="616" type="line"/>
      <point x="625" y="112" type="line"/>
      <point x="641" y="112" type="line"/>
      <point x="478" y="616" type="line"/>
      <point x="448" y="616" type="line"/>
      <point x="281" y="116" type="line"/>
      <point x="298" y="115" type="line"/>
      <point x="163" y="616" type="line"/>
      <point x="78" y="616" type="line"/>
    </contour>
    <contour>
      <point x="13" y="579" type="line"/>
      <point x="133" y="565" type="line"/>
      <point x="151" y="565" type="line"/>
      <point x="262" y="579" type="line"/>
      <point x="262" y="616" type="line"/>
      <point x="13" y="616" type="line"/>
    </contour>
    <contour>
      <point x="339" y="579" type="line"/>
      <point x="457" y="565" type="line"/>
      <point x="475" y="565" type="line"/>
      <point x="587" y="579" type="line"/>
      <point x="587" y="616" type="line"/>
      <point x="339" y="616" type="line"/>
    </contour>
    <contour>
      <point x="665" y="579" type="line"/>
      <point x="761" y="565" type="line"/>
      <point x="780" y="565" type="line"/>
      <point x="874" y="579" type="line"/>
      <point x="874" y="616" type="line"/>
      <point x="665" y="616" type="line"/>
    </contour>
  </outline>
</glyph>
<glyph name="grave" format="2">
  <advance width="368"/>
  <unicode hex="0060"/>
  <anchor x="184" y="465" name="_aboveLC"/>
  <anchor x="184" y="678" name="aboveLC"/>
  <outline>
    <contour>
      <point x="233" y="529" type="line"/>
      <point x="207" y="573"/>
      <point x="180" y="616"/>
      <point x="151" y="659" type="curve" smooth="yes"/>
      <point x="134" y="687"/>
      <point x="118" y="696"/>
      <point x="103" y="696" type="curve" smooth="yes"/>
      <point x="85" y="696"/>
      <point x="69" y="685"/>
      <point x="69" y="662" type="curve" smooth="yes"/>
      <point x="69" y="650"/>
      <point x="73" y="636"/>
      <point x="98" y="613" type="curve" smooth="yes"/>
      <point x="135" y="579"/>
      <point x="172" y="546"/>
      <point x="210" y="512" type="curve"/>
    </contour>
  </outline>
</glyph>
<glyph name="f" format="2">
  <advance width="325"/>
  <unicode hex="0066"/>
  <anchor x="270" y="690" name="aboveLC"/>
  <anchor x="145" y="-20" name="belowLC"/>
  <outline>
    <contour>
      <point x="33" y="0" type="line"/>
      <point x="268" y="0" type="line"/>
      <point x="268" y="32" type="line"/>
      <point x="155" y="50" type="line"/>
      <point x="137" y="50" type="line"/>
      <point x="33" y="32" type="line"/>
    </contour>
    <contour>
      <point x="106" y="0" type="curve"/>
      <point x="185" y="0" type="line"/>
      <point x="184" y="64"/>
      <point x="183" y="128"/>
      <point x="183" y="193" type="curve" smooth="yes"/>
      <point x="183" y="400" type="line"/>
      <point x="174" y="525"/>
      <point x="193" y="599"/>
      <point x="228" y="634" type="curve" smooth="yes"/>
      <point x="246" y="653"/>
      <point x="268" y="662"/>
      <point x="287" y="662" type="curve" smooth="yes"/>
      <point x="298" y="662"/>
      <point x="312" y="656"/>
      <point x="322" y="651" type="curve"/>
      <point x="301" y="678" type="line"/>
      <point x="224" y="660" type="line"/>
      <point x="269" y="626" type="line" smooth="yes"/>
      <point x="291" y="609"/>
      <point x="311" y="600"/>
      <point x="334" y="600" type="curve" smooth="yes"/>
      <point x="368" y="600"/>
      <point x="388" y="618"/>
      <point x="390" y="641" type="curve"/>
      <point x="380" y="676"/>
      <point x="345" y="690"/>
      <point x="302" y="690" type="curve" smooth="yes"/>
      <point x="261" y="690"/>
      <point x="218" y="677"/>
      <point x="180" y="639" type="curve" smooth="yes"/>
      <point x="132" y="591"/>
      <point x="118" y="535"/>
      <point x="110" y="433" type="curve"/>
      <point x="109" y="427" type="line"/>
      <point x="136" y="441" type="line"/>
      <point x="32" y="427" type="line"/>
      <point x="32" y="388" type="line"/>
      <point x="109" y="388" type="line"/>
      <point x="109" y="193" type="line" smooth="yes"/>
      <point x="109" y="128"/>
      <point x="108" y="64"/>
    </contour>
    <contour>
      <point x="146" y="388" type="line"/>
      <point x="310" y="388" type="line"/>
      <point x="310" y="436" type="line"/>
      <point x="146" y="436" type="line"/>
    </contour>
  </outline>
</glyph>
<glyph name="j" format="2">
  <advance width="253"/>
  <unicode hex="006A"/>
  <anchor x="139" y="649" name="aboveLC"/>
  <anchor x="48" y="-230" name="belowLC"/>
  <outline>
    <contour>
      <point x="5" y="-230" type="curve" smooth="yes"/>
      <point x="59" y="-230"/>
      <point x="85" y="-212"/>
      <point x="116" y="-181" type="curve" smooth="yes"/>
      <point x="167" y="-130"/>
      <point x="173" y="-57"/>
      <point x="173" y="94" type="curve" smooth="yes"/>
      <point x="173" y="314" type="line"/>
      <point x="176" y="438" type="line"/>
      <point x="162" y="448" type="line"/>
      <point x="27" y="392" type="line"/>
      <point x="27" y="360" type="line"/>
      <point x="101" y="352" type="line"/>
      <point x="103" y="315"/>
      <point x="103" y="287"/>
      <point x="103" y="236" type="curve" smooth="yes"/>
      <point x="103" y="94" type="line" smooth="yes"/>
      <point x="103" y="-46"/>
      <point x="98" y="-120"/>
      <point x="83" y="-158" type="curve" smooth="yes"/>
      <point x="69" y="-193"/>
      <point x="48" y="-198"/>
      <point x="23" y="-198" type="curve"/>
      <point x="24" y="-217" type="line"/>
      <point x="88" y="-197" type="line"/>
      <point x="46" y="-168" type="line" smooth="yes"/>
      <point x="22" y="-150"/>
      <point x="2" y="-141"/>
      <point x="-21" y="-141" type="curve" smooth="yes"/>
      <point x="-47" y="-141"/>
      <point x="-66" y="-153"/>
      <point x="-74" y="-177" type="curve"/>
      <point x="-74" y="-201"/>
      <point x="-49" y="-230"/>
    </contour>
    <contour>
      <point x="139" y="552" type="curve" smooth="yes"/>
      <point x="173" y="552"/>
      <point x="200" y="575"/>
      <point x="200" y="609" type="curve" smooth="yes"/>
      <point x="200" y="644"/>
      <point x="173" y="667"/>
      <point x="139" y="667" type="curve" smooth="yes"/>
      <point x="105" y="667"/>
      <point x="79" y="644"/>
      <point x="79" y="609" type="curve" smooth="yes"/>
      <point x="79" y="575"/>
      <point x="105" y="552"/>
    </contour>
  </outline>
</glyph>
<glyph name="l" format="2">
  <advance width="272"/>
  <unicode hex="006C"/>
  <anchor x="131" y="679" name="aboveLC"/>
  <anchor x="138" y="-20" name="belowLC"/>
  <outline>
    <contour>
      <point x="23" y="0" type="line"/>
      <point x="249" y="0" type="line"/>
      <point x="249" y="32" type="line"/>
      <point x="145" y="50" type="line"/>
      <point x="126" y="50" type="line"/>
      <point x="23" y="32" type="line"/>
    </contour>
    <contour>
      <point x="99" y="128"/>
      <point x="98" y="64"/>
      <point x="96" y="0" type="curve"/>
      <point x="175" y="0" type="line"/>
      <point x="173" y="64"/>
      <point x="172" y="128"/>
      <point x="172" y="193" type="curve" smooth="yes"/>
      <point x="172" y="542" type="line"/>
      <point x="176" y="673" type="line"/>
      <point x="163" y="680" type="line"/>
      <point x="23" y="639" type="line"/>
      <point x="23" y="607" type="line"/>
      <point x="99" y="598" type="line"/>
      <point x="99" y="193" type="line" smooth="yes"/>
    </contour>
  </outline>
</glyph>
<glyph name="n" format="2">
  <advance width="556"/>
  <unicode hex="006E"/>
  <anchor x="284" y="465" name="aboveLC"/>
  <anchor x="287" y="-20" name="belowLC"/>
  <outline>
    <contour>
      <point x="385" y="0" type="curve"/>
      <point x="464" y="0" type="line"/>
      <point x="462" y="41"/>
      <point x="461" y="134"/>
      <point x="461" y="193" type="curve" smooth="yes"/>
      <point x="461" y="277" type="line" smooth="yes"/>
      <point x="461" y="399"/>
      <point x="424" y="448"/>
      <point x="345" y="448" type="curve" smooth="yes"/>
      <point x="282" y="448"/>
      <point x="213" y="407"/>
      <point x="169" y="353" type="curve"/>
      <point x="162" y="353" type="line"/>
      <point x="174" y="320" type="line"/>
      <point x="227" y="365"/>
      <point x="264" y="383"/>
      <point x="310" y="383" type="curve" smooth="yes"/>
      <point x="366" y="383"/>
      <point x="388" y="356"/>
      <point x="388" y="270" type="curve" smooth="yes"/>
      <point x="388" y="193" type="line" smooth="yes"/>
      <point x="388" y="134"/>
      <point x="387" y="41"/>
    </contour>
    <contour>
      <point x="37" y="0" type="line"/>
      <point x="249" y="0" type="line"/>
      <point x="249" y="32" type="line"/>
      <point x="157" y="50" type="line"/>
      <point x="138" y="50" type="line"/>
      <point x="37" y="32" type="line"/>
    </contour>
    <contour>
      <point x="105" y="0" type="curve"/>
      <point x="184" y="0" type="line"/>
      <point x="183" y="41"/>
      <point x="182" y="136"/>
      <point x="182" y="193" type="curve" smooth="yes"/>
      <point x="182" y="332" type="line"/>
      <point x="171" y="438" type="line"/>
      <point x="157" y="448" type="line"/>
      <point x="32" y="392" type="line"/>
      <point x="32" y="360" type="line"/>
      <point x="105" y="352" type="line"/>
      <point x="107" y="315"/>
      <point x="108" y="287"/>
      <point x="108" y="236" type="curve" smooth="yes"/>
      <point x="108" y="193" type="line" smooth="yes"/>
      <point x="108" y="136"/>
      <point x="107" y="41"/>
    </contour>
    <contour>
      <point x="317" y="0" type="line"/>
      <point x="529" y="0" type="line"/>
      <point x="529" y="32" type="line"/>
      <point x="437" y="50" type="line"/>
      <point x="418" y="50" type="line"/>
      <point x="317" y="32" type="line"/>
    </contour>
  </outline>
</glyph>
<glyph name="r" format="2">
  <advance width="386"/>
  <unicode hex="0072"/>
  <anchor x="221" y="465" name="aboveLC"/>
  <anchor x="149" y="-20" name="belowLC"/>
  <outline>
    <contour>
      <point x="39" y="0" type="line"/>
      <point x="260" y="0" type="line"/>
      <point x="260" y="32" type="line"/>
      <point x="159" y="50" type="line"/>
      <point x="140" y="50" type="line"/>
      <point x="39" y="32" type="line"/>
    </contour>
    <contour>
      <point x="105" y="0" type="curve"/>
      <point x="184" y="0" type="line"/>
      <point x="183" y="41"/>
      <point x="182" y="136"/>
      <point x="182" y="193" type="curve" smooth="yes"/>
      <point x="182" y="323" type="line"/>
      <point x="171" y="438" type="line"/>
      <point x="157" y="448" type="line"/>
      <point x="32" y="392" type="line"/>
      <point x="32" y="360" type="line"/>
      <point x="105" y="352" type="line"/>
      <point x="107" y="315"/>
      <point x="108" y="287"/>
      <point x="108" y="236" type="curve" smooth="yes"/>
      <point x="108" y="193" type="line" smooth="yes"/>
      <point x="108" y="136"/>
      <point x="107" y="41"/>
    </contour>
    <contour>
      <point x="180" y="255" type="line"/>
      <point x="201" y="326"/>
      <point x="234" y="372"/>
      <point x="291" y="402" type="curve"/>
      <point x="246" y="392" type="line"/>
      <point x="271" y="371" type="line" smooth="yes"/>
      <point x="287" y="357"/>
      <point x="305" y="349"/>
      <point x="326" y="349" type="curve" smooth="yes"/>
      <point x="363" y="349"/>
      <point x="379" y="373"/>
      <point x="379" y="416" type="curve"/>
      <point x="368" y="435"/>
      <point x="341" y="448"/>
      <point x="314" y="448" type="curve" smooth="yes"/>
      <point x="262" y="448"/>
      <point x="207" y="399"/>
      <point x="177" y="318" type="curve"/>
      <point x="168" y="318" type="line"/>
    </contour>
  </outline>
</glyph>
<glyph name="t" format="2">
  <advance width="297"/>
  <unicode hex="0074"/>
  <anchor x="147" y="586" name="aboveLC"/>
  <anchor x="177" y="0" name="baseLC"/>
  <anchor x="177" y="-20" name="belowLC"/>
  <outline>
    <contour>
      <point x="84" y="21"/>
      <point x="124" y="-11"/>
      <point x="187" y="-11" type="curve" smooth="yes"/>
      <point x="233" y="-11"/>
      <point x="271" y="5"/>
      <point x="294" y="34" type="curve"/>
      <point x="273" y="59" type="line"/>
      <point x="249" y="42"/>
      <point x="230" y="34"/>
      <point x="210" y="34" type="curve" smooth="yes"/>
      <point x="179" y="34"/>
      <point x="159" y="54"/>
      <point x="159" y="102" type="curve" smooth="yes"/>
      <point x="159" y="400" type="line"/>
      <point x="160" y="418" type="line"/>
      <point x="166" y="561" type="line"/>
      <point x="113" y="561" type="line"/>
      <point x="85" y="412" type="line"/>
      <point x="122" y="442" type="line"/>
      <point x="8" y="427" type="line"/>
      <point x="8" y="388" type="line"/>
      <point x="85" y="388" type="line"/>
      <point x="85" y="169" type="line" smooth="yes"/>
      <point x="85" y="133"/>
      <point x="84" y="114"/>
      <point x="84" y="92" type="curve" smooth="yes"/>
    </contour>
    <contour>
      <point x="122" y="388" type="line"/>
      <point x="286" y="388" type="line"/>
      <point x="286" y="436" type="line"/>
      <point x="122" y="436" type="line"/>
    </contour>
  </outline>
</glyph>
<glyph name="u" format="2">
  <advance width="535"/>
  <unicode hex="0075"/>
  <anchor x="259" y="465" name="aboveLC"/>
  <anchor x="275" y="-20" name="belowLC"/>
  <anchor x="413" y="433" name="hornLC"/>
  <anchor x="453" y="0" name="ogonek"/>
  <outline>
    <contour>
      <point x="85" y="32"/>
      <point x="131" y="-11"/>
      <point x="205" y="-11" type="curve" smooth="yes"/>
      <point x="263" y="-11"/>
      <point x="323" y="15"/>
      <point x="375" y="81" type="curve"/>
      <point x="389" y="81" type="line"/>
      <point x="375" y="121" type="line"/>
      <point x="329" y="75"/>
      <point x="281" y="52"/>
      <point x="234" y="52" type="curve" smooth="yes"/>
      <point x="184" y="52"/>
      <point x="160" y="80"/>
      <point x="160" y="162" type="curve" smooth="yes"/>
      <point x="160" y="303" type="line"/>
      <point x="164" y="432" type="line"/>
      <point x="155" y="441" type="line"/>
      <point x="23" y="429" type="line"/>
      <point x="23" y="397" type="line"/>
      <point x="108" y="379" type="line"/>
      <point x="89" y="396" type="line"/>
      <point x="86" y="153" type="line" smooth="yes"/>
    </contour>
    <contour>
      <point x="379" y="-7" type="line"/>
      <point x="503" y="0" type="line"/>
      <point x="503" y="32" type="line"/>
      <point x="439" y="46" type="line"/>
      <point x="439" y="303" type="line"/>
      <point x="442" y="432" type="line"/>
      <point x="433" y="441" type="line"/>
      <point x="302" y="429" type="line"/>
      <point x="302" y="397" type="line"/>
      <point x="368" y="383" type="line"/>
      <point x="366" y="100" type="line"/>
    </contour>
  </outline>
</glyph>
<glyph name="dieresis" format="2">
  <advance width="368"/>
  <unicode hex="00A8"/>
  <anchor x="184" y="465" name="_aboveLC"/>
  <anchor x="184" y="625" name="aboveLC"/>
  <outline>
    <contour>
      <point x="88" y="549" type="curve" smooth="yes"/>
      <point x="117" y="549"/>
      <point x="142" y="571"/>
      <point x="142" y="600" type="curve" smooth="yes"/>
      <point x="142" y="630"/>
      <point x="117" y="652"/>
      <point x="88" y="652" type="curve" smooth="yes"/>
      <point x="58" y="652"/>
      <point x="34" y="630"/>
      <point x="34" y="600" type="curve" smooth="yes"/>
      <point x="34" y="571"/>
      <point x="58" y="549"/>
    </contour>
    <contour>
      <point x="279" y="549" type="curve" smooth="yes"/>
      <point x="309" y="549"/>
      <point x="333" y="571"/>
      <point x="333" y="600" type="curve" smooth="yes"/>
      <point x="333" y="630"/>
      <point x="309" y="652"/>
      <point x="279" y="652" type="curve" smooth="yes"/>
      <point x="250" y="652"/>
      <point x="225" y="630"/>
      <point x="225" y="600" type="curve" smooth="yes"/>
      <point x="225" y="571"/>
      <point x="250" y="549"/>
    </contour>
  </outline>
</glyph>
<glyph name="plusminus" format="2">
  <advance width="487"/>
  <unicode hex="00B1"/>
  <outline>
    <contour>
      <point x="216" y="89" type="line"/>
      <point x="271" y="89" type="line"/>
      <point x="271" y="513" type="line"/>
      <point x="216" y="513" type="line"/>
    </contour>
    <contour>
      <point x="460" y="277" type="line"/>
      <point x="460" y="329" type="line"/>
      <point x="26" y="329" type="line"/>
      <point x="26" y="277" type="line"/>
    </contour>
    <contour>
      <point x="460" y="0" type="line"/>
      <point x="460" y="51" type="line"/>
      <point x="26" y="51" type="line"/>
      <point x="26" y="0" type="line"/>
    </contour>
  </outline>
</glyph>
<glyph name="acute" format="2">
  <advance width="368"/>
  <unicode hex="00B4"/>
  <anchor x="184" y="465" name="_aboveLC"/>
  <anchor x="184" y="696" name="aboveLC"/>
  <outline>
    <contour>
      <point x="130" y="529" type="curve"/>
      <point x="153" y="512" type="line"/>
      <point x="192" y="546"/>
      <point x="229" y="579"/>
      <point x="265" y="613" type="curve" smooth="yes"/>
      <point x="290" y="636"/>
      <point x="295" y="650"/>
      <point x="295" y="662" type="curve" smooth="yes"/>
      <point x="295" y="685"/>
      <point x="278" y="696"/>
      <point x="261" y="696" type="curve" smooth="yes"/>
      <point x="245" y="696"/>
      <point x="230" y="687"/>
      <point x="212" y="659" type="curve" smooth="yes"/>
      <point x="184" y="616"/>
      <point x="157" y="573"/>
    </contour>
  </outline>
</glyph>
<glyph name="periodcentered" format="2">
  <advance width="276"/>
  <unicode hex="00B7"/>
  <outline>
    <contour>
      <point x="138" y="241" type="curve" smooth="yes"/>
      <point x="173" y="241"/>
      <point x="202" y="270"/>
      <point x="202" y="305" type="curve" smooth="yes"/>
      <point x="202" y="341"/>
      <point x="173" y="370"/>
      <point x="138" y="370" type="curve" smooth="yes"/>
      <point x="102" y="370"/>
      <point x="73" y="341"/>
      <point x="73" y="305" type="curve" smooth="yes"/>
      <point x="73" y="270"/>
      <point x="102" y="241"/>
    </contour>
  </outline>
</glyph>
<glyph name="guillemotright" format="2">
  <advance width="444"/>
  <unicode hex="00BB"/>
  <outline>
    <contour>
      <point x="45" y="417" type="line"/>
      <point x="23" y="392" type="line"/>
      <point x="175" y="214" type="line"/>
      <point x="175" y="250" type="line"/>
      <point x="23" y="71" type="line"/>
      <point x="45" y="46" type="line"/>
      <point x="231" y="207" type="line"/>
      <point x="231" y="256" type="line"/>
    </contour>
    <contour>
      <point x="230" y="417" type="line"/>
      <point x="207" y="392" type="line"/>
      <point x="360" y="214" type="line"/>
      <point x="360" y="250" type="line"/>
      <point x="207" y="71" type="line"/>
      <point x="230" y="46" type="line"/>
      <point x="416" y="207" type="line"/>
      <point x="416" y="256" type="line"/>
    </contour>
  </outline>
</glyph>
<glyph name="onehalf" format="2">
  <advance width="791"/>
  <unicode hex="00BD"/>
  <outline>
    <contour>
      <point x="187" y="-23" type="line"/>
      <point x="616" y="593" type="line"/>
      <point x="588" y="616" type="line"/>
      <point x="160" y="0" type="line"/>
    </contour>
    <contour>
      <point x="66" y="575" type="line"/>
      <point x="66" y="541" type="line"/>
      <point x="138" y="547" type="line"/>
      <point x="138" y="233" type="line"/>
      <point x="201" y="233" type="line"/>
      <point x="201" y="598" type="line"/>
      <point x="193" y="604" type="line"/>
    </contour>
    <contour>
      <point x="195" y="276" type="line"/>
      <point x="141" y="276" type="line"/>
      <point x="54" y="260" type="line"/>
      <point x="54" y="233" type="line"/>
      <point x="282" y="233" type="line"/>
      <point x="282" y="260" type="line"/>
    </contour>
    <contour>
      <point x="476" y="0" type="line"/>
      <point x="722" y="0" type="line"/>
      <point x="722" y="63" type="line"/>
      <point x="516" y="63" type="line"/>
      <point x="503" y="26" type="line"/>
      <point x="590" y="107" type="line" smooth="yes"/>
      <point x="673" y="184"/>
      <point x="708" y="225"/>
      <point x="708" y="277" type="curve" smooth="yes"/>
      <point x="708" y="326"/>
      <point x="677" y="373"/>
      <point x="597" y="373" type="curve" smooth="yes"/>
      <point x="532" y="373"/>
      <point x="475" y="343"/>
      <point x="471" y="280" type="curve"/>
      <point x="478" y="267"/>
      <point x="489" y="259"/>
      <point x="504" y="259" type="curve" smooth="yes"/>
      <point x="520" y="259"/>
      <point x="531" y="269"/>
      <point x="540" y="304" type="curve" smooth="yes"/>
      <point x="552" y="356" type="line"/>
      <point x="516" y="330" type="line"/>
      <point x="538" y="339"/>
      <point x="557" y="342"/>
      <point x="573" y="342" type="curve" smooth="yes"/>
      <point x="617" y="342"/>
      <point x="643" y="317"/>
      <point x="643" y="270" type="curve" smooth="yes"/>
      <point x="643" y="223"/>
      <point x="616" y="180"/>
      <point x="562" y="127" type="curve" smooth="yes"/>
      <point x="476" y="45" type="line"/>
    </contour>
  </outline>
</glyph>
<glyph name="questiondown" format="2">
  <advance width="380"/>
  <unicode hex="00BF"/>
  <outline>
    <contour>
      <point x="244" y="448" type="curve" smooth="yes"/>
      <point x="212" y="448"/>
      <point x="186" y="422"/>
      <point x="186" y="391" type="curve" smooth="yes"/>
      <point x="186" y="359"/>
      <point x="212" y="332"/>
      <point x="244" y="332" type="curve" smooth="yes"/>
      <point x="276" y="332"/>
      <point x="302" y="359"/>
      <point x="302" y="391" type="curve" smooth="yes"/>
      <point x="302" y="422"/>
      <point x="276" y="448"/>
    </contour>
    <contour>
      <point x="61" y="11" type="curve" smooth="yes"/>
      <point x="61" y="-107"/>
      <point x="194" y="-185"/>
      <point x="270" y="-193" type="curve"/>
      <point x="303" y="-184"/>
      <point x="320" y="-171"/>
      <point x="320" y="-143" type="curve" smooth="yes"/>
      <point x="320" y="-121"/>
      <point x="309" y="-104"/>
      <point x="254" y="-94" type="curve" smooth="yes"/>
      <point x="84" y="-64" type="line"/>
      <point x="184" y="-129" type="line"/>
      <point x="147" y="-95"/>
      <point x="110" y="-47"/>
      <point x="110" y="-2" type="curve" smooth="yes"/>
      <point x="110" y="28"/>
      <point x="128" y="50"/>
      <point x="162" y="61" type="curve" smooth="yes"/>
      <point x="213" y="78" type="line" smooth="yes"/>
      <point x="268" y="95"/>
      <point x="287" y="112"/>
      <point x="287" y="138" type="curve" smooth="yes"/>
      <point x="287" y="149"/>
      <point x="284" y="166"/>
      <point x="273" y="203" type="curve" smooth="yes"/>
      <point x="261" y="241" type="line"/>
      <point x="227" y="241" type="line"/>
      <point x="227" y="189" type="line" smooth="yes"/>
      <point x="227" y="159"/>
      <point x="222" y="150"/>
      <point x="183" y="138" type="curve" smooth="yes"/>
      <point x="152" y="127" type="line" smooth="yes"/>
      <point x="91" y="107"/>
      <point x="61" y="69"/>
    </contour>
  </outline>
</glyph>
<glyph name="multiply" format="2">
  <advance width="487"/>
  <unicode hex="00D7"/>
  <outline>
    <contour>
      <point x="411" y="99" type="line"/>
      <point x="448" y="136" type="line"/>
      <point x="76" y="507" type="line"/>
      <point x="39" y="471" type="line"/>
    </contour>
    <contour>
      <point x="448" y="471" type="line"/>
      <point x="411" y="507" type="line"/>
      <point x="39" y="136" type="line"/>
      <point x="76" y="99" type="line"/>
    </contour>
  </outline>
</glyph>
<glyph name="Uacute" format="2">
  <advance width="668"/>
  <unicode hex="00DA"/>
  <anchor x="361" y="797" name="aboveUC"/>
  <anchor x="343" y="-20" name="belowLC"/>
  <anchor x="536" y="624" name="hornLC"/>
  <anchor x="415" y="0" name="ogonek"/>
  <outline>
    <contour>
      <point x="115" y="60"/>
      <point x="205" y="-13"/>
      <point x="338" y="-13" type="curve" smooth="yes"/>
      <point x="462" y="-13"/>
      <point x="556" y="57"/>
      <point x="556" y="251" type="curve" smooth="yes"/>
      <point x="556" y="616" type="line"/>
      <point x="510" y="616" type="line"/>
      <point x="510" y="275" type="line" smooth="yes"/>
      <point x="510" y="110"/>
      <point x="457" y="50"/>
      <point x="351" y="50" type="curve" smooth="yes"/>
      <point x="257" y="50"/>
      <point x="197" y="100"/>
      <point x="197" y="258" type="curve" smooth="yes"/>
      <point x="197" y="331" type="line" smooth="yes"/>
      <point x="197" y="427"/>
      <point x="197" y="523"/>
      <point x="200" y="616" type="curve"/>
      <point x="112" y="616" type="line"/>
      <point x="115" y="521"/>
      <point x="115" y="425"/>
      <point x="115" y="331" type="curve" smooth="yes"/>
      <point x="115" y="231" type="line" smooth="yes"/>
    </contour>
    <contour>
      <point x="36" y="579" type="line"/>
      <point x="156" y="565" type="line"/>
      <point x="174" y="565" type="line"/>
      <point x="294" y="579" type="line"/>
      <point x="294" y="616" type="line"/>
      <point x="36" y="616" type="line"/>
    </contour>
    <contour>
      <point x="415" y="579" type="line"/>
      <point x="517" y="565" type="line"/>
      <point x="535" y="565" type="line"/>
      <point x="636" y="579" type="line"/>
      <point x="636" y="616" type="line"/>
      <point x="415" y="616" type="line"/>
    </contour>
    <contour>
      <point x="300" y="677" type="curve"/>
      <point x="317" y="655" type="line"/>
      <point x="355" y="674"/>
      <point x="393" y="695"/>
      <point x="431" y="716" type="curve" smooth="yes"/>
      <point x="465" y="736"/>
      <point x="477" y="750"/>
      <point x="477" y="767" type="curve" smooth="yes"/>
      <point x="477" y="785"/>
      <point x="461" y="797"/>
      <point x="443" y="797" type="curve" smooth="yes"/>
      <point x="427" y="797"/>
      <point x="412" y="788"/>
      <point x="386" y="762" type="curve" smooth="yes"/>
      <point x="357" y="735"/>
      <point x="329" y="706"/>
    </contour>
  </outline>
</glyph>
<glyph name="Ucircumflex" format="2">
  <advance width="668"/>
  <unicode hex="00DB"/>
  <anchor x="351" y="786" name="aboveUC"/>
  <anchor x="343" y="-20" name="belowLC"/>
  <anchor x="536" y="624" name="hornLC"/>
  <anchor x="415" y="0" name="ogonek"/>
  <outline>
    <contour>
      <point x="115" y="60"/>
      <point x="205" y="-13"/>
      <point x="338" y="-13" type="curve" smooth="yes"/>
      <point x="462" y="-13"/>
      <point x="556" y="57"/>
      <point x="556" y="251" type="curve" smooth="yes"/>
      <point x="556" y="616" type="line"/>
      <point x="510" y="616" type="line"/>
      <point x="510" y="275" type="line" smooth="yes"/>
      <point x="510" y="110"/>
      <point x="457" y="50"/>
      <point x="351" y="50" type="curve" smooth="yes"/>
      <point x="257" y="50"/>
      <point x="197" y="100"/>
      <point x="197" y="258" type="curve" smooth="yes"/>
      <point x="197" y="331" type="line" smooth="yes"/>
      <point x="197" y="427"/>
      <point x="197" y="523"/>
      <point x="200" y="616" type="curve"/>
      <point x="112" y="616" type="line"/>
      <point x="115" y="521"/>
      <point x="115" y="425"/>
      <point x="115" y="331" type="curve" smooth="yes"/>
      <point x="115" y="231" type="line" smooth="yes"/>
    </contour>
    <contour>
      <point x="36" y="579" type="line"/>
      <point x="156" y="565" type="line"/>
      <point x="174" y="565" type="line"/>
      <point x="294" y="579" type="line"/>
      <point x="294" y="616" type="line"/>
      <point x="36" y="616" type="line"/>
    </contour>
    <contour>
      <point x="415" y="579" type="line"/>
      <point x="517" y="565" type="line"/>
      <point x="535" y="565" type="line"/>
      <point x="636" y="579" type="line"/>
      <point x="636" y="616" type="line"/>
      <point x="415" y="616" type="line"/>
    </contour>
    <contour>
      <point x="366" y="777" type="line"/>
      <point x="336" y="777" type="line"/>
      <point x="217" y="673" type="line"/>
      <point x="234" y="651" type="line"/>
      <point x="390" y="740" type="line"/>
      <point x="312" y="740" type="line"/>
      <point x="468" y="651" type="line"/>
      <point x="485" y="673" type="line"/>
    </contour>
  </outline>
</glyph>
<glyph name="ae" format="2">
  <advance width="719"/>
  <unicode hex="00E6"/>
  <anchor x="368" y="465" name="aboveLC"/>
  <anchor x="345" y="-20" name="belowLC"/>
  <outline>
    <contour>
      <point x="120" y="117" type="curve" smooth="yes"/>
      <point x="120" y="144"/>
      <point x="129" y="175"/>
      <point x="212" y="207" type="curve" smooth="yes"/>
      <point x="240" y="218"/>
      <point x="292" y="236"/>
      <point x="333" y="244" type="curve"/>
      <point x="333" y="277" type="line"/>
      <point x="287" y="269"/>
      <point x="231" y="253"/>
      <point x="193" y="239" type="curve" smooth="yes"/>
      <point x="69" y="194"/>
      <point x="42" y="156"/>
      <point x="42" y="104" type="curve" smooth="yes"/>
      <point x="42" y="28"/>
      <point x="98" y="-11"/>
      <point x="165" y="-11" type="curve" smooth="yes"/>
      <point x="221" y="-11"/>
      <point x="255" y="7"/>
      <point x="340" y="88" type="curve"/>
      <point x="322" y="111" type="line"/>
      <point x="253" y="58"/>
      <point x="232" y="47"/>
      <point x="195" y="47" type="curve" smooth="yes"/>
      <point x="155" y="47"/>
      <point x="120" y="70"/>
    </contour>
    <contour>
      <point x="498" y="-11" type="curve" smooth="yes"/>
      <point x="582" y="-11"/>
      <point x="641" y="29"/>
      <point x="674" y="94" type="curve"/>
      <point x="653" y="111" type="line"/>
      <point x="620" y="72"/>
      <point x="583" y="46"/>
      <point x="524" y="46" type="curve" smooth="yes"/>
      <point x="432" y="46"/>
      <point x="373" y="108"/>
      <point x="373" y="221" type="curve" smooth="yes"/>
      <point x="373" y="356"/>
      <point x="441" y="406"/>
      <point x="499" y="406" type="curve" smooth="yes"/>
      <point x="558" y="406"/>
      <point x="602" y="358"/>
      <point x="602" y="306" type="curve" smooth="yes"/>
      <point x="602" y="279"/>
      <point x="591" y="259"/>
      <point x="548" y="259" type="curve" smooth="yes"/>
      <point x="333" y="259" type="line"/>
      <point x="333" y="220" type="line"/>
      <point x="668" y="220" type="line"/>
      <point x="672" y="232"/>
      <point x="675" y="251"/>
      <point x="675" y="271" type="curve" smooth="yes"/>
      <point x="675" y="383"/>
      <point x="599" y="448"/>
      <point x="504" y="448" type="curve" smooth="yes"/>
      <point x="437" y="448"/>
      <point x="379" y="411"/>
      <point x="339" y="353" type="curve"/>
      <point x="329" y="345" type="line"/>
      <point x="308" y="309"/>
      <point x="295" y="264"/>
      <point x="295" y="214" type="curve" smooth="yes"/>
      <point x="295" y="69"/>
      <point x="375" y="-11"/>
    </contour>
    <contour>
      <point x="367" y="305" type="line" smooth="yes"/>
      <point x="367" y="407"/>
      <point x="309" y="448"/>
      <point x="231" y="448" type="curve" smooth="yes"/>
      <point x="139" y="448"/>
      <point x="71" y="402"/>
      <point x="54" y="333" type="curve"/>
      <point x="56" y="310"/>
      <point x="70" y="294"/>
      <point x="95" y="294" type="curve" smooth="yes"/>
      <point x="120" y="294"/>
      <point x="136" y="309"/>
      <point x="144" y="335" type="curve" smooth="yes"/>
      <point x="168" y="416" type="line"/>
      <point x="129" y="390" type="line"/>
      <point x="163" y="403"/>
      <point x="192" y="406"/>
      <point x="215" y="406" type="curve" smooth="yes"/>
      <point x="271" y="406"/>
      <point x="299" y="384"/>
      <point x="299" y="294" type="curve" smooth="yes"/>
      <point x="299" y="220" type="line"/>
      <point x="367" y="220" type="line"/>
    </contour>
  </outline>
</glyph>
<glyph name="iacute" format="2">
  <advance width="273"/>
  <unicode hex="00ED"/>
  <anchor x="152" y="696" name="aboveLC"/>
  <anchor x="136" y="-20" name="belowLC"/>
  <anchor x="172" y="0" name="ogonek"/>
  <outline>
    <contour>
      <point x="101" y="0" type="curve"/>
      <point x="180" y="0" type="line"/>
      <point x="178" y="41"/>
      <point x="177" y="136"/>
      <point x="177" y="193" type="curve" smooth="yes"/>
      <point x="177" y="314" type="line"/>
      <point x="180" y="438" type="line"/>
      <point x="166" y="448" type="line"/>
      <point x="27" y="392" type="line"/>
      <point x="27" y="360" type="line"/>
      <point x="101" y="352" type="line"/>
      <point x="103" y="315"/>
      <point x="103" y="287"/>
      <point x="103" y="236" type="curve" smooth="yes"/>
      <point x="103" y="193" type="line" smooth="yes"/>
      <point x="103" y="136"/>
      <point x="103" y="41"/>
    </contour>
    <contour>
      <point x="32" y="0" type="line"/>
      <point x="243" y="0" type="line"/>
      <point x="243" y="32" type="line"/>
      <point x="151" y="50" type="line"/>
      <point x="133" y="50" type="line"/>
      <point x="32" y="32" type="line"/>
    </contour>
    <contour>
      <point x="99" y="529" type="curve"/>
      <point x="122" y="512" type="line"/>
      <point x="161" y="546"/>
      <point x="197" y="579"/>
      <point x="234" y="613" type="curve" smooth="yes"/>
      <point x="259" y="636"/>
      <point x="264" y="650"/>
      <point x="264" y="662" type="curve" smooth="yes"/>
      <point x="264" y="685"/>
      <point x="247" y="696"/>
      <point x="230" y="696" type="curve" smooth="yes"/>
      <point x="214" y="696"/>
      <point x="198" y="687"/>
      <point x="181" y="659" type="curve" smooth="yes"/>
      <point x="152" y="616"/>
      <point x="126" y="573"/>
    </contour>
  </outline>
</glyph>
<glyph name="icircumflex" format="2">
  <advance width="273"/>
  <unicode hex="00EE"/>
  <anchor x="138" y="674" name="aboveLC"/>
  <anchor x="136" y="-20" name="belowLC"/>
  <anchor x="172" y="0" name="ogonek"/>
  <outline>
    <contour>
      <point x="101" y="0" type="curve"/>
      <point x="180" y="0" type="line"/>
      <point x="178" y="41"/>
      <point x="177" y="136"/>
      <point x="177" y="193" type="curve" smooth="yes"/>
      <point x="177" y="314" type="line"/>
      <point x="180" y="438" type="line"/>
      <point x="166" y="448" type="line"/>
      <point x="27" y="392" type="line"/>
      <point x="27" y="360" type="line"/>
      <point x="101" y="352" type="line"/>
      <point x="103" y="315"/>
      <point x="103" y="287"/>
      <point x="103" y="236" type="curve" smooth="yes"/>
      <point x="103" y="193" type="line" smooth="yes"/>
      <point x="103" y="136"/>
      <point x="103" y="41"/>
    </contour>
    <contour>
      <point x="32" y="0" type="line"/>
      <point x="243" y="0" type="line"/>
      <point x="243" y="32" type="line"/>
      <point x="151" y="50" type="line"/>
      <point x="133" y="50" type="line"/>
      <point x="32" y="32" type="line"/>
    </contour>
    <contour>
      <point x="253" y="502" type="line"/>
      <point x="275" y="521" type="line"/>
      <point x="153" y="683" type="line"/>
      <point x="124" y="683" type="line"/>
      <point x="2" y="521" type="line"/>
      <point x="23" y="502" type="line"/>
      <point x="177" y="643" type="line"/>
      <point x="100" y="643" type="line"/>
    </contour>
  </outline>
</glyph>
<glyph name="ntilde" format="2">
  <advance width="556"/>
  <unicode hex="00F1"/>
  <anchor x="277" y="666" name="aboveLC"/>
  <anchor x="287" y="-20" name="belowLC"/>
  <outline>
    <contour>
      <point x="385" y="0" type="curve"/>
      <point x="464" y="0" type="line"/>
      <point x="462" y="41"/>
      <point x="461" y="134"/>
      <point x="461" y="193" type="curve" smooth="yes"/>
      <point x="461" y="277" type="line" smooth="yes"/>
      <point x="461" y="399"/>
      <point x="424" y="448"/>
      <point x="345" y="448" type="curve" smooth="yes"/>
      <point x="282" y="448"/>
      <point x="213" y="407"/>
      <point x="169" y="353" type="curve"/>
      <point x="162" y="353" type="line"/>
      <point x="174" y="320" type="line"/>
      <point x="227" y="365"/>
      <point x="264" y="383"/>
      <point x="310" y="383" type="curve" smooth="yes"/>
      <point x="366" y="383"/>
      <point x="388" y="356"/>
      <point x="388" y="270" type="curve" smooth="yes"/>
      <point x="388" y="193" type="line" smooth="yes"/>
      <point x="388" y="134"/>
      <point x="387" y="41"/>
    </contour>
    <contour>
      <point x="37" y="0" type="line"/>
      <point x="249" y="0" type="line"/>
      <point x="249" y="32" type="line"/>
      <point x="157" y="50" type="line"/>
      <point x="138" y="50" type="line"/>
      <point x="37" y="32" type="line"/>
    </contour>
    <contour>
      <point x="105" y="0" type="curve"/>
      <point x="184" y="0" type="line"/>
      <point x="183" y="41"/>
      <point x="182" y="136"/>
      <point x="182" y="193" type="curve" smooth="yes"/>
      <point x="182" y="332" type="line"/>
      <point x="171" y="438" type="line"/>
      <point x="157" y="448" type="line"/>
      <point x="32" y="392" type="line"/>
      <point x="32" y="360" type="line"/>
      <point x="105" y="352" type="line"/>
      <point x="107" y="315"/>
      <point x="108" y="287"/>
      <point x="108" y="236" type="curve" smooth="yes"/>
      <point x="108" y="193" type="line" smooth="yes"/>
      <point x="108" y="136"/>
      <point x="107" y="41"/>
    </contour>
    <contour>
      <point x="317" y="0" type="line"/>
      <point x="529" y="0" type="line"/>
      <point x="529" y="32" type="line"/>
      <point x="437" y="50" type="line"/>
      <point x="418" y="50" type="line"/>
      <point x="317" y="32" type="line"/>
    </contour>
    <contour>
      <point x="128" y="539" type="curve"/>
      <point x="152" y="530" type="line"/>
      <point x="165" y="576"/>
      <point x="182" y="605"/>
      <point x="209" y="605" type="curve" smooth="yes"/>
      <point x="234" y="605"/>
      <point x="253" y="580"/>
      <point x="273" y="560" type="curve" smooth="yes"/>
      <point x="291" y="541"/>
      <point x="310" y="529"/>
      <point x="340" y="529" type="curve" smooth="yes"/>
      <point x="391" y="529"/>
      <point x="415" y="575"/>
      <point x="426" y="646" type="curve"/>
      <point x="402" y="655" type="line"/>
      <point x="390" y="609"/>
      <point x="373" y="580"/>
      <point x="345" y="580" type="curve" smooth="yes"/>
      <point x="321" y="580"/>
      <point x="304" y="603"/>
      <point x="282" y="625" type="curve" smooth="yes"/>
      <point x="264" y="643"/>
      <point x="245" y="656"/>
      <point x="215" y="656" type="curve" smooth="yes"/>
      <point x="164" y="656"/>
      <point x="138" y="609"/>
    </contour>
  </outline>
</glyph>
<glyph name="ocircumflex" format="2">
  <advance width="504"/>
  <unicode hex="00F4"/>
  <anchor x="252" y="674" name="aboveLC"/>
  <anchor x="253" y="-20" name="belowLC"/>
  <anchor x="360" y="441" name="hornLC"/>
  <anchor x="322" y="0" name="ogonek"/>
  <outline>
    <contour>
      <point x="252" y="-11" type="curve" smooth="yes"/>
      <point x="356" y="-11"/>
      <point x="461" y="63"/>
      <point x="461" y="216" type="curve" smooth="yes"/>
      <point x="461" y="368"/>
      <point x="356" y="448"/>
      <point x="252" y="448" type="curve" smooth="yes"/>
      <point x="146" y="448"/>
      <point x="42" y="368"/>
      <point x="42" y="216" type="curve" smooth="yes"/>
      <point x="42" y="63"/>
      <point x="146" y="-11"/>
    </contour>
    <contour>
      <point x="252" y="29" type="curve" smooth="yes"/>
      <point x="170" y="29"/>
      <point x="125" y="92"/>
      <point x="125" y="216" type="curve" smooth="yes"/>
      <point x="125" y="339"/>
      <point x="170" y="406"/>
      <point x="252" y="406" type="curve" smooth="yes"/>
      <point x="332" y="406"/>
      <point x="379" y="339"/>
      <point x="379" y="216" type="curve" smooth="yes"/>
      <point x="379" y="92"/>
      <point x="332" y="29"/>
    </contour>
    <contour>
      <point x="367" y="502" type="line"/>
      <point x="388" y="521" type="line"/>
      <point x="266" y="683" type="line"/>
      <point x="237" y="683" type="line"/>
      <point x="115" y="521" type="line"/>
      <point x="137" y="502" type="line"/>
      <point x="290" y="643" type="line"/>
      <point x="213" y="643" type="line"/>
    </contour>
  </outline>
</glyph>
<glyph name="otilde" format="2">
  <advance width="504"/>
  <unicode hex="00F5"/>
  <anchor x="252" y="666" name="aboveLC"/>
  <anchor x="253" y="-20" name="belowLC"/>
  <anchor x="360" y="441" name="hornLC"/>
  <anchor x="322" y="0" name="ogonek"/>
  <outline>
    <contour>
      <point x="252" y="-11" type="curve" smooth="yes"/>
      <point x="356" y="-11"/>
      <point x="461" y="63"/>
      <point x="461" y="216" type="curve" smooth="yes"/>
      <point x="461" y="368"/>
      <point x="356" y="448"/>
      <point x="252" y="448" type="curve" smooth="yes"/>
      <point x="146" y="448"/>
      <point x="42" y="368"/>
      <point x="42" y="216" type="curve" smooth="yes"/>
      <point x="42" y="63"/>
      <point x="146" y="-11"/>
    </contour>
    <contour>
      <point x="252" y="29" type="curve" smooth="yes"/>
      <point x="170" y="29"/>
      <point x="125" y="92"/>
      <point x="125" y="216" type="curve" smooth="yes"/>
      <point x="125" y="339"/>
      <point x="170" y="406"/>
      <point x="252" y="406" type="curve" smooth="yes"/>
      <point x="332" y="406"/>
      <point x="379" y="339"/>
      <point x="379" y="216" type="curve" smooth="yes"/>
      <point x="379" y="92"/>
      <point x="332" y="29"/>
    </contour>
    <contour>
      <point x="103" y="539" type="curve"/>
      <point x="126" y="530" type="line"/>
      <point x="139" y="576"/>
      <point x="156" y="605"/>
      <point x="184" y="605" type="curve" smooth="yes"/>
      <point x="208" y="605"/>
      <point x="227" y="580"/>
      <point x="247" y="560" type="curve" smooth="yes"/>
      <point x="265" y="541"/>
      <point x="284" y="529"/>
      <point x="314" y="529" type="curve" smooth="yes"/>
      <point x="366" y="529"/>
      <point x="390" y="575"/>
      <point x="401" y="646" type="curve"/>
      <point x="377" y="655" type="line"/>
      <point x="364" y="609"/>
      <point x="347" y="580"/>
      <point x="320" y="580" type="curve" smooth="yes"/>
      <point x="295" y="580"/>
      <point x="278" y="603"/>
      <point x="256" y="625" type="curve" smooth="yes"/>
      <point x="239" y="643"/>
      <point x="219" y="656"/>
      <point x="189" y="656" type="curve" smooth="yes"/>
      <point x="138" y="656"/>
      <point x="113" y="609"/>
    </contour>
  </outline>
</glyph>
<glyph name="udieresis" format="2">
  <advance width="535"/>
  <unicode hex="00FC"/>
  <anchor x="267" y="625" name="aboveLC"/>
  <anchor x="275" y="-20" name="belowLC"/>
  <anchor x="413" y="433" name="hornLC"/>
  <anchor x="453" y="0" name="ogonek"/>
  <outline>
    <contour>
      <point x="85" y="32"/>
      <point x="131" y="-11"/>
      <point x="205" y="-11" type="curve" smooth="yes"/>
      <point x="263" y="-11"/>
      <point x="323" y="15"/>
      <point x="375" y="81" type="curve"/>
      <point x="389" y="81" type="line"/>
      <point x="375" y="121" type="line"/>
      <point x="329" y="75"/>
      <point x="281" y="52"/>
      <point x="234" y="52" type="curve" smooth="yes"/>
      <point x="184" y="52"/>
      <point x="160" y="80"/>
      <point x="160" y="162" type="curve" smooth="yes"/>
      <point x="160" y="303" type="line"/>
      <point x="164" y="432" type="line"/>
      <point x="155" y="441" type="line"/>
      <point x="23" y="429" type="line"/>
      <point x="23" y="397" type="line"/>
      <point x="108" y="379" type="line"/>
      <point x="89" y="396" type="line"/>
      <point x="86" y="153" type="line" smooth="yes"/>
    </contour>
    <contour>
      <point x="379" y="-7" type="line"/>
      <point x="503" y="0" type="line"/>
      <point x="503" y="32" type="line"/>
      <point x="439" y="46" type="line"/>
      <point x="439" y="303" type="line"/>
      <point x="442" y="432" type="line"/>
      <point x="433" y="441" type="line"/>
      <point x="302" y="429" type="line"/>
      <point x="302" y="397" type="line"/>
      <point x="368" y="383" type="line"/>
      <point x="366" y="100" type="line"/>
    </contour>
    <contour>
      <point x="172" y="549" type="curve" smooth="yes"/>
      <point x="201" y="549"/>
      <point x="226" y="571"/>
      <point x="226" y="600" type="curve" smooth="yes"/>
      <point x="226" y="630"/>
      <point x="201" y="652"/>
      <point x="172" y="652" type="curve" smooth="yes"/>
      <point x="142" y="652"/>
      <point x="118" y="630"/>
      <point x="118" y="600" type="curve" smooth="yes"/>
      <point x="118" y="571"/>
      <point x="142" y="549"/>
    </contour>
    <contour>
      <point x="363" y="549" type="curve" smooth="yes"/>
      <point x="392" y="549"/>
      <point x="416" y="571"/>
      <point x="416" y="600" type="curve" smooth="yes"/>
      <point x="416" y="630"/>
      <point x="392" y="652"/>
      <point x="363" y="652" type="curve" smooth="yes"/>
      <point x="333" y="652"/>
      <point x="309" y="630"/>
      <point x="309" y="600" type="curve" smooth="yes"/>
      <point x="309" y="571"/>
      <point x="333" y="549"/>
    </contour>
  </outline>
</glyph>
<glyph name="oe" format="2">
  <advance width="799"/>
  <unicode hex="0153"/>
  <anchor x="419" y="465" name="aboveLC"/>
  <outline>
    <contour>
      <point x="252" y="406" type="curve" smooth="yes"/>
      <point x="333" y="406"/>
      <point x="379" y="337"/>
      <point x="379" y="214" type="curve" smooth="yes"/>
      <point x="379" y="91"/>
      <point x="333" y="29"/>
      <point x="252" y="29" type="curve" smooth="yes"/>
      <point x="171" y="29"/>
      <point x="125" y="93"/>
      <point x="125" y="217" type="curve" smooth="yes"/>
      <point x="125" y="340"/>
      <point x="171" y="406"/>
    </contour>
    <contour>
      <point x="437" y="117" type="curve"/>
      <point x="397" y="117" type="line"/>
      <point x="423" y="36"/>
      <point x="487" y="-11"/>
      <point x="578" y="-11" type="curve" smooth="yes"/>
      <point x="659" y="-11"/>
      <point x="719" y="25"/>
      <point x="754" y="94" type="curve"/>
      <point x="733" y="111" type="line"/>
      <point x="705" y="75"/>
      <point x="663" y="46"/>
      <point x="604" y="46" type="curve" smooth="yes"/>
      <point x="512" y="46"/>
      <point x="453" y="108"/>
      <point x="453" y="221" type="curve" smooth="yes"/>
      <point x="453" y="356"/>
      <point x="521" y="406"/>
      <point x="579" y="406" type="curve" smooth="yes"/>
      <point x="640" y="406"/>
      <point x="682" y="358"/>
      <point x="682" y="306" type="curve" smooth="yes"/>
      <point x="682" y="277"/>
      <point x="670" y="259"/>
      <point x="628" y="259" type="curve" smooth="yes"/>
      <point x="411" y="259" type="line"/>
      <point x="411" y="220" type="line"/>
      <point x="748" y="220" type="line"/>
      <point x="752" y="232"/>
      <point x="755" y="251"/>
      <point x="755" y="271" type="curve" smooth="yes"/>
      <point x="755" y="383"/>
      <point x="679" y="448"/>
      <point x="584" y="448" type="curve" smooth="yes"/>
      <point x="508" y="448"/>
      <point x="431" y="397"/>
      <point x="402" y="321" type="curve"/>
      <point x="437" y="321" type="line"/>
      <point x="407" y="401"/>
      <point x="324" y="448"/>
      <point x="252" y="448" type="curve" smooth="yes"/>
      <point x="147" y="448"/>
      <point x="42" y="369"/>
      <point x="42" y="217" type="curve" smooth="yes"/>
      <point x="42" y="64"/>
      <point x="147" y="-11"/>
      <point x="252" y="-11" type="curve" smooth="yes"/>
      <point x="324" y="-11"/>
      <point x="405" y="34"/>
    </contour>
  </outline>
</glyph>
<glyph name="florin" format="2">
  <advance width="457"/>
  <unicode hex="0192"/>
  <outline>
    <contour>
      <point x="93" y="317" type="line"/>
      <point x="390" y="317" type="line"/>
      <point x="390" y="363" type="line"/>
      <point x="93" y="363" type="line"/>
    </contour>
    <contour>
      <point x="270" y="321" type="line" smooth="yes"/>
      <point x="279" y="432"/>
      <point x="280" y="487"/>
      <point x="306" y="530" type="curve" smooth="yes"/>
      <point x="318" y="550"/>
      <point x="335" y="566"/>
      <point x="364" y="577" type="curve"/>
      <point x="333" y="577" type="line"/>
      <point x="364" y="547" type="line" smooth="yes"/>
      <point x="386" y="525"/>
      <point x="406" y="517"/>
      <point x="427" y="517" type="curve" smooth="yes"/>
      <point x="458" y="517"/>
      <point x="475" y="534"/>
      <point x="480" y="558" type="curve"/>
      <point x="471" y="586"/>
      <point x="436" y="607"/>
      <point x="386" y="607" type="curve" smooth="yes"/>
      <point x="347" y="607"/>
      <point x="304" y="591"/>
      <point x="274" y="561" type="curve" smooth="yes"/>
      <point x="225" y="512"/>
      <point x="208" y="444"/>
      <point x="198" y="325" type="curve" smooth="yes"/>
      <point x="187" y="199" type="line" smooth="yes"/>
      <point x="177" y="88"/>
      <point x="177" y="27"/>
      <point x="151" y="-15" type="curve" smooth="yes"/>
      <point x="139" y="-34"/>
      <point x="122" y="-51"/>
      <point x="93" y="-62" type="curve"/>
      <point x="125" y="-62" type="line"/>
      <point x="93" y="-32" type="line" smooth="yes"/>
      <point x="71" y="-10"/>
      <point x="51" y="-2"/>
      <point x="29" y="-2" type="curve" smooth="yes"/>
      <point x="0" y="-2"/>
      <point x="-18" y="-19"/>
      <point x="-23" y="-43" type="curve"/>
      <point x="-13" y="-70"/>
      <point x="22" y="-92"/>
      <point x="71" y="-92" type="curve" smooth="yes"/>
      <point x="110" y="-92"/>
      <point x="150" y="-78"/>
      <point x="184" y="-44" type="curve" smooth="yes"/>
      <point x="233" y="4"/>
      <point x="248" y="79"/>
      <point x="261" y="214" type="curve" smooth="yes"/>
    </contour>
  </outline>
</glyph>
<glyph name="circumflex" format="2">
  <advance width="290"/>
  <unicode hex="02C6"/>
  <anchor x="145" y="465" name="_aboveLC"/>
  <anchor x="145" y="674" name="aboveLC"/>
  <outline>
    <contour>
      <point x="260" y="502" type="line"/>
      <point x="281" y="521" type="line"/>
      <point x="160" y="683" type="line"/>
      <point x="130" y="683" type="line"/>
      <point x="9" y="521" type="line"/>
      <point x="30" y="502" type="line"/>
      <point x="184" y="643" type="line"/>
      <point x="106" y="643" type="line"/>
    </contour>
  </outline>
</glyph>
<glyph name="breve" format="2">
  <advance width="368"/>
  <unicode hex="02D8"/>
  <anchor x="184" y="465" name="_aboveLC"/>
  <anchor x="184" y="675" name="aboveLC"/>
  <outline>
    <contour>
      <point x="46" y="665" type="line"/>
      <point x="54" y="594"/>
      <point x="100" y="529"/>
      <point x="184" y="529" type="curve" smooth="yes"/>
      <point x="267" y="529"/>
      <point x="313" y="594"/>
      <point x="322" y="665" type="curve"/>
      <point x="295" y="675" type="line"/>
      <point x="276" y="627"/>
      <point x="245" y="588"/>
      <point x="184" y="588" type="curve" smooth="yes"/>
      <point x="122" y="588"/>
      <point x="91" y="627"/>
      <point x="72" y="675" type="curve"/>
    </contour>
  </outline>
</glyph>
<glyph name="dotaccent" format="2">
  <advance width="368"/>
  <unicode hex="02D9"/>
  <anchor x="184" y="465" name="_aboveLC"/>
  <anchor x="184" y="649" name="aboveLC"/>
  <outline>
    <contour>
      <point x="184" y="542" type="curve" smooth="yes"/>
      <point x="218" y="542"/>
      <point x="244" y="566"/>
      <point x="244" y="600" type="curve" smooth="yes"/>
      <point x="244" y="634"/>
      <point x="218" y="658"/>
      <point x="184" y="658" type="curve" smooth="yes"/>
      <point x="149" y="658"/>
      <point x="123" y="634"/>
      <point x="123" y="600" type="curve" smooth="yes"/>
      <point x="123" y="566"/>
      <point x="149" y="542"/>
    </contour>
  </outline>
</glyph>
<glyph name="ring" format="2">
  <advance width="368"/>
  <unicode hex="02DA"/>
  <anchor x="184" y="465" name="_aboveLC"/>
  <anchor x="184" y="700" name="aboveLC"/>
  <outline>
    <contour>
      <point x="184" y="541" type="curve" smooth="yes"/>
      <point x="149" y="541"/>
      <point x="131" y="570"/>
      <point x="131" y="598" type="curve" smooth="yes"/>
      <point x="131" y="627"/>
      <point x="150" y="655"/>
      <point x="184" y="655" type="curve" smooth="yes"/>
      <point x="218" y="655"/>
      <point x="236" y="627"/>
      <point x="236" y="598" type="curve" smooth="yes"/>
      <point x="236" y="570"/>
      <point x="217" y="541"/>
    </contour>
    <contour>
      <point x="184" y="506" type="curve" smooth="yes"/>
      <point x="232" y="506"/>
      <point x="279" y="540"/>
      <point x="279" y="598" type="curve" smooth="yes"/>
      <point x="279" y="658"/>
      <point x="232" y="690"/>
      <point x="184" y="690" type="curve" smooth="yes"/>
      <point x="135" y="690"/>
      <point x="88" y="655"/>
      <point x="88" y="598" type="curve" smooth="yes"/>
      <point x="88" y="539"/>
      <point x="135" y="506"/>
    </contour>
  </outline>
</glyph>
<glyph name="quoteleft" format="2">
  <advance width="250"/>
  <unicode hex="2018"/>
  <outline>
    <contour>
      <point x="154" y="588" type="line"/>
      <point x="91" y="560"/>
      <point x="49" y="490"/>
      <point x="49" y="434" type="curve" smooth="yes"/>
      <point x="49" y="391"/>
      <point x="73" y="361"/>
      <point x="112" y="361" type="curve" smooth="yes"/>
      <point x="148" y="361"/>
      <point x="172" y="389"/>
      <point x="172" y="420" type="curve" smooth="yes"/>
      <point x="172" y="456"/>
      <point x="144" y="471"/>
      <point x="121" y="471" type="curve" smooth="yes"/>
      <point x="98" y="471"/>
      <point x="73" y="453"/>
      <point x="73" y="430" type="curve"/>
      <point x="78" y="430"/>
      <point x="100" y="430"/>
      <point x="107" y="430" type="curve"/>
      <point x="102" y="439"/>
      <point x="102" y="442"/>
      <point x="102" y="468" type="curve" smooth="yes"/>
      <point x="102" y="495"/>
      <point x="132" y="543"/>
      <point x="160" y="560" type="curve"/>
    </contour>
  </outline>
</glyph>
<glyph name="guilsinglright" format="2">
  <advance width="259"/>
  <unicode hex="203A"/>
  <outline>
    <contour>
      <point x="45" y="417" type="line"/>
      <point x="23" y="392" type="line"/>
      <point x="175" y="214" type="line"/>
      <point x="175" y="250" type="line"/>
      <point x="23" y="71" type="line"/>
      <point x="45" y="46" type="line"/>
      <point x="231" y="207" type="line"/>
      <point x="231" y="256" type="line"/>
    </contour>
  </outline>
</glyph>
<glyph name="fraction" format="2">
  <advance width="128"/>
  <unicode hex="2044"/>
  <outline>
    <contour>
      <point x="-136" y="-23" type="line"/>
      <point x="292" y="593" type="line"/>
      <point x="264" y="616" type="line"/>
      <point x="-163" y="0" type="line"/>
    </contour>
  </outline>
</glyph>
<glyph name="Omega" format="2">
  <advance width="662"/>
  <unicode hex="2126"/>
  <outline>
    <contour>
      <point x="41" y="0" type="line"/>
      <point x="283" y="0" type="line"/>
      <point x="287" y="111" type="line"/>
      <point x="203" y="157"/>
      <point x="147" y="227"/>
      <point x="147" y="356" type="curve" smooth="yes"/>
      <point x="147" y="497"/>
      <point x="207" y="584"/>
      <point x="331" y="584" type="curve" smooth="yes"/>
      <point x="450" y="584"/>
      <point x="517" y="507"/>
      <point x="517" y="356" type="curve" smooth="yes"/>
      <point x="517" y="251"/>
      <point x="471" y="158"/>
      <point x="374" y="111" type="curve"/>
      <point x="379" y="0" type="line"/>
      <point x="621" y="0" type="line"/>
      <point x="639" y="156" type="line"/>
      <point x="588" y="156" type="line"/>
      <point x="553" y="40" type="line"/>
      <point x="589" y="67" type="line"/>
      <point x="390" y="67" type="line"/>
      <point x="419" y="39" type="line"/>
      <point x="416" y="84" type="line"/>
      <point x="545" y="144"/>
      <point x="612" y="256"/>
      <point x="612" y="363" type="curve" smooth="yes"/>
      <point x="612" y="520"/>
      <point x="488" y="630"/>
      <point x="331" y="630" type="curve" smooth="yes"/>
      <point x="179" y="630"/>
      <point x="50" y="527"/>
      <point x="50" y="353" type="curve" smooth="yes"/>
      <point x="50" y="222"/>
      <point x="133" y="131"/>
      <point x="243" y="84" type="curve"/>
      <point x="241" y="39" type="line"/>
      <point x="270" y="67" type="line"/>
      <point x="72" y="67" type="line"/>
      <point x="108" y="40" type="line"/>
      <point x="73" y="156" type="line"/>
      <point x="23" y="156" type="line"/>
    </contour>
  </outline>
</glyph>
<glyph name="product" format="2">
  <advance width="713"/>
  <unicode hex="220F"/>
  <outline>
    <contour>
      <point x="556" y="569" type="line"/>
      <point x="556" y="616" type="line"/>
      <point x="165" y="616" type="line"/>
      <point x="165" y="569" type="line"/>
    </contour>
    <contour>
      <point x="156" y="-69" type="line"/>
      <point x="36" y="-82" type="line"/>
      <point x="36" y="-119" type="line"/>
      <point x="294" y="-119" type="line"/>
      <point x="294" y="-82" type="line"/>
      <point x="174" y="-69" type="line"/>
    </contour>
    <contour>
      <point x="124" y="165" type="line" smooth="yes"/>
      <point x="124" y="69"/>
      <point x="124" y="-26"/>
      <point x="121" y="-119" type="curve"/>
      <point x="209" y="-119" type="line"/>
      <point x="207" y="-24"/>
      <point x="207" y="70"/>
      <point x="207" y="165" type="curve" smooth="yes"/>
      <point x="207" y="331" type="line" smooth="yes"/>
      <point x="207" y="427"/>
      <point x="207" y="523"/>
      <point x="209" y="616" type="curve"/>
      <point x="121" y="616" type="line"/>
      <point x="124" y="521"/>
      <point x="124" y="425"/>
      <point x="124" y="331" type="curve" smooth="yes"/>
    </contour>
    <contour>
      <point x="547" y="565" type="line"/>
      <point x="556" y="565" type="line"/>
      <point x="676" y="579" type="line"/>
      <point x="676" y="616" type="line"/>
      <point x="547" y="616" type="line"/>
    </contour>
    <contour>
      <point x="506" y="165" type="line" smooth="yes"/>
      <point x="506" y="69"/>
      <point x="506" y="-26"/>
      <point x="503" y="-119" type="curve"/>
      <point x="591" y="-119" type="line"/>
      <point x="588" y="-24"/>
      <point x="588" y="70"/>
      <point x="588" y="165" type="curve" smooth="yes"/>
      <point x="588" y="331" type="line" smooth="yes"/>
      <point x="588" y="427"/>
      <point x="588" y="523"/>
      <point x="591" y="616" type="curve"/>
      <point x="503" y="616" type="line"/>
      <point x="506" y="521"/>
      <point x="506" y="425"/>
      <point x="506" y="331" type="curve" smooth="yes"/>
    </contour>
    <contour>
      <point x="538" y="-69" type="line"/>
      <point x="418" y="-82" type="line"/>
      <point x="418" y="-119" type="line"/>
      <point x="676" y="-119" type="line"/>
      <point x="676" y="-82" type="line"/>
      <point x="556" y="-69" type="line"/>
    </contour>
    <contour>
      <point x="156" y="565" type="line"/>
      <point x="165" y="565" type="line"/>
      <point x="165" y="616" type="line"/>
      <point x="36" y="616" type="line"/>
      <point x="36" y="579" type="line"/>
    </contour>
  </outline>
</glyph>
<glyph name="integral" format="2">
  <advance width="329"/>
  <unicode hex="222B"/>
  <outline>
    <contour>
      <point x="140" y="-3" type="curve" smooth="yes"/>
      <point x="140" y="-112"/>
      <point x="109" y="-174"/>
      <point x="46" y="-200" type="curve"/>
      <point x="77" y="-200" type="line"/>
      <point x="50" y="-170" type="line" smooth="yes"/>
      <point x="31" y="-148"/>
      <point x="11" y="-140"/>
      <point x="-6" y="-140" type="curve" smooth="yes"/>
      <point x="-37" y="-140"/>
      <point x="-55" y="-157"/>
      <point x="-59" y="-181" type="curve"/>
      <point x="-50" y="-208"/>
      <point x="-20" y="-230"/>
      <point x="22" y="-230" type="curve" smooth="yes"/>
      <point x="104" y="-230"/>
      <point x="213" y="-171"/>
      <point x="213" y="27" type="curve" smooth="yes"/>
      <point x="213" y="179"/>
      <point x="184" y="330"/>
      <point x="184" y="482" type="curve" smooth="yes"/>
      <point x="184" y="575"/>
      <point x="213" y="653"/>
      <point x="277" y="678" type="curve"/>
      <point x="246" y="678" type="line"/>
      <point x="274" y="648" type="line" smooth="yes"/>
      <point x="293" y="627"/>
      <point x="312" y="619"/>
      <point x="332" y="619" type="curve" smooth="yes"/>
      <point x="362" y="619"/>
      <point x="379" y="635"/>
      <point x="384" y="659" type="curve"/>
      <point x="375" y="687"/>
      <point x="344" y="708"/>
      <point x="301" y="708" type="curve" smooth="yes"/>
      <point x="198" y="708"/>
      <point x="111" y="622"/>
      <point x="111" y="450" type="curve" smooth="yes"/>
      <point x="111" y="299"/>
      <point x="140" y="148"/>
    </contour>
  </outline>
</glyph>
<glyph name="approxequal" format="2">
  <advance width="487"/>
  <unicode hex="2248"/>
  <outline>
    <contour>
      <point x="261" y="212" type="curve" smooth="yes"/>
      <point x="226" y="247"/>
      <point x="194" y="263"/>
      <point x="155" y="263" type="curve" smooth="yes"/>
      <point x="87" y="263"/>
      <point x="51" y="218"/>
      <point x="46" y="135" type="curve"/>
      <point x="91" y="127" type="line"/>
      <point x="99" y="192"/>
      <point x="124" y="211"/>
      <point x="149" y="211" type="curve" smooth="yes"/>
      <point x="174" y="211"/>
      <point x="197" y="203"/>
      <point x="227" y="173" type="curve" smooth="yes"/>
      <point x="262" y="138"/>
      <point x="294" y="123"/>
      <point x="333" y="123" type="curve" smooth="yes"/>
      <point x="401" y="123"/>
      <point x="437" y="168"/>
      <point x="442" y="251" type="curve"/>
      <point x="397" y="258" type="line"/>
      <point x="389" y="194"/>
      <point x="364" y="174"/>
      <point x="338" y="174" type="curve" smooth="yes"/>
      <point x="313" y="174"/>
      <point x="289" y="184"/>
    </contour>
    <contour>
      <point x="261" y="433" type="curve" smooth="yes"/>
      <point x="226" y="468"/>
      <point x="194" y="483"/>
      <point x="155" y="483" type="curve" smooth="yes"/>
      <point x="87" y="483"/>
      <point x="51" y="438"/>
      <point x="46" y="356" type="curve"/>
      <point x="91" y="348" type="line"/>
      <point x="99" y="413"/>
      <point x="124" y="432"/>
      <point x="149" y="432" type="curve" smooth="yes"/>
      <point x="174" y="432"/>
      <point x="197" y="424"/>
      <point x="227" y="394" type="curve" smooth="yes"/>
      <point x="262" y="359"/>
      <point x="294" y="344"/>
      <point x="333" y="344" type="curve" smooth="yes"/>
      <point x="401" y="344"/>
      <point x="437" y="389"/>
      <point x="442" y="471" type="curve"/>
      <point x="397" y="479" type="line"/>
      <point x="389" y="414"/>
      <point x="364" y="395"/>
      <point x="338" y="395" type="curve" smooth="yes"/>
      <point x="313" y="395"/>
      <point x="289" y="404"/>
    </contour>
  </outline>
</glyph>
<glyph name="uniA4D1" format="2">
  <advance width="472"/>
  <unicode hex="A4D1"/>
  <outline>
    <contour>
      <point x="60" y="0" type="line"/>
      <point x="128" y="0" type="line"/>
      <point x="128" y="240" type="line"/>
      <point x="92" y="210" type="line"/>
      <point x="230" y="210" type="line" smooth="yes"/>
      <point x="332" y="210"/>
      <point x="420" y="260"/>
      <point x="420" y="377" type="curve" smooth="yes"/>
      <point x="420" y="489"/>
      <point x="330" y="530"/>
      <point x="230" y="530" type="curve" smooth="yes"/>
      <point x="60" y="530" type="line"/>
    </contour>
    <contour>
      <point x="128" y="260" type="line"/>
      <point x="128" y="490" type="line"/>
      <point x="92" y="466" type="line"/>
      <point x="236" y="466" type="line" smooth="yes"/>
      <point x="306" y="466"/>
      <point x="352" y="428"/>
      <point x="352" y="372" type="curve" smooth="yes"/>
      <point x="352" y="316"/>
      <point x="306" y="274"/>
      <point x="236" y="274" type="curve" smooth="yes"/>
      <point x="92" y="274" type="line"/>
    </contour>
  </outline>
</glyph>
<glyph name="uniA4D3" format="2">
  <advance width="497"/>
  <unicode hex="A4D3"/>
  <outline>
    <contour>
      <point x="60" y="0" type="line"/>
      <point x="206" y="0" type="line" smooth="yes"/>
      <point x="371" y="0"/>
      <point x="445" y="120"/>
      <point x="445" y="275" type="curve" smooth="yes"/>
      <point x="445" y="430"/>
      <point x="376" y="530"/>
      <point x="206" y="530" type="curve" smooth="yes"/>
      <point x="60" y="530" type="line"/>
    </contour>
    <contour>
      <point x="124" y="40" type="line"/>
      <point x="124" y="490" type="line"/>
      <point x="92" y="466" type="line"/>
      <point x="212" y="466" type="line" smooth="yes"/>
      <point x="327" y="466"/>
      <point x="377" y="385"/>
      <point x="377" y="270" type="curve" smooth="yes"/>
      <point x="377" y="155"/>
      <point x="327" y="64"/>
      <point x="212" y="64" type="curve" smooth="yes"/>
      <point x="92" y="64" type="line"/>
    </contour>
  </outline>
</glyph>
<glyph name="uniA4D5" format="2">
  <advance width="540"/>
  <unicode hex="A4D5"/>
  <outline>
    <contour>
      <point x="48" y="0" type="line"/>
      <point x="492" y="0" type="line"/>
      <point x="492" y="64" type="line"/>
      <point x="304" y="64" type="line"/>
      <point x="304" y="530" type="line"/>
      <point x="236" y="530" type="line"/>
      <point x="236" y="64" type="line"/>
      <point x="48" y="64" type="line"/>
    </contour>
  </outline>
</glyph>
<glyph name="uniA4D8" format="2">
  <advance width="492"/>
  <unicode hex="A4D8"/>
  <outline>
    <contour>
      <point x="44" y="0" type="line"/>
      <point x="137" y="0" type="line"/>
      <point x="391" y="291" type="line"/>
      <point x="407" y="415" type="line"/>
    </contour>
    <contour>
      <point x="273" y="206" type="line"/>
      <point x="312" y="271" type="line"/>
      <point x="129" y="530" type="line"/>
      <point x="44" y="530" type="line"/>
    </contour>
    <contour>
      <point x="364" y="0" type="line"/>
      <point x="432" y="0" type="line"/>
      <point x="432" y="530" type="line"/>
      <point x="364" y="530" type="line"/>
    </contour>
  </outline>
</glyph>
<glyph name="uniA4DE" format="2">
  <advance width="422"/>
  <unicode hex="A4DE"/>
  <outline>
    <contour>
      <point x="48" y="0" type="line"/>
      <point x="362" y="0" type="line"/>
      <point x="362" y="530" type="line"/>
      <point x="294" y="530" type="line"/>
      <point x="294" y="64" type="line"/>
      <point x="48" y="64" type="line"/>
    </contour>
    <contour>
      <point x="80" y="240" type="line"/>
      <point x="330" y="240" type="line"/>
      <point x="330" y="300" type="line"/>
      <point x="80" y="300" type="line"/>
    </contour>
  </outline>
</glyph>
<glyph name="uniA4E8" format="2">
  <advance width="540"/>
  <unicode hex="A4E8"/>
  <outline>
    <contour>
      <point x="252" y="-8" type="curve" smooth="yes"/>
      <point x="418" y="-8"/>
      <point x="488" y="124"/>
      <point x="488" y="270" type="curve" smooth="yes"/>
      <point x="488" y="417"/>
      <point x="418" y="538"/>
      <point x="252" y="538" type="curve" smooth="yes"/>
      <point x="172" y="538"/>
      <point x="117" y="499"/>
      <point x="58" y="449" type="curve"/>
      <point x="58" y="253" type="line"/>
      <point x="252" y="253" type="line"/>
      <point x="252" y="317" type="line"/>
      <point x="126" y="317" type="line"/>
      <point x="126" y="453" type="line"/>
      <point x="90" y="382" type="line"/>
      <point x="138" y="437"/>
      <point x="197" y="474"/>
      <point x="252" y="474" type="curve" smooth="yes"/>
      <point x="360" y="474"/>
      <point x="420" y="391"/>
      <point x="420" y="265" type="curve" smooth="yes"/>
      <point x="420" y="139"/>
      <point x="360" y="56"/>
      <point x="252" y="56" type="curve" smooth="yes"/>
      <point x="192" y="56"/>
      <point x="137" y="95"/>
      <point x="107" y="145" type="curve"/>
      <point x="50" y="116" type="line"/>
      <point x="91" y="41"/>
      <point x="147" y="-8"/>
    </contour>
  </outline>
</glyph>
<glyph name="uniA4F0" format="2">
  <advance width="442"/>
  <unicode hex="A4F0"/>
  <outline>
    <contour>
      <point x="60" y="0" type="line"/>
      <point x="394" y="0" type="line"/>
      <point x="394" y="64" type="line"/>
      <point x="128" y="64" type="line"/>
      <point x="128" y="466" type="line"/>
      <point x="384" y="466" type="line"/>
      <point x="384" y="530" type="line"/>
      <point x="60" y="530" type="line"/>
    </contour>
    <contour>
      <point x="92" y="238" type="line"/>
      <point x="344" y="238" type="line"/>
      <point x="344" y="302" type="line"/>
      <point x="92" y="302" type="line"/>
    </contour>
  </outline>
</glyph>
<glyph name="uniA4F3" format="2">
  <advance width="532"/>
  <unicode hex="A4F3"/>
  <outline>
    <contour>
      <point x="266" y="-8" type="curve" smooth="yes"/>
      <point x="411" y="-8"/>
      <point x="480" y="120"/>
      <point x="480" y="270" type="curve" smooth="yes"/>
      <point x="480" y="420"/>
      <point x="411" y="538"/>
      <point x="266" y="538" type="curve" smooth="yes"/>
      <point x="121" y="538"/>
      <point x="52" y="410"/>
      <point x="52" y="260" type="curve" smooth="yes"/>
      <point x="52" y="110"/>
      <point x="121" y="-8"/>
    </contour>
    <contour>
      <point x="266" y="56" type="curve" smooth="yes"/>
      <point x="171" y="56"/>
      <point x="120" y="146"/>
      <point x="120" y="265" type="curve" smooth="yes"/>
      <point x="120" y="388"/>
      <point x="171" y="474"/>
      <point x="266" y="474" type="curve" smooth="yes"/>
      <point x="361" y="474"/>
      <point x="412" y="384"/>
      <point x="412" y="265" type="curve" smooth="yes"/>
      <point x="412" y="142"/>
      <point x="361" y="56"/>
    </contour>
  </outline>
</glyph>
<glyph name="uniA4F7" format="2">
  <advance width="497"/>
  <unicode hex="A4F7"/>
  <outline>
    <contour>
      <point x="291" y="0" type="curve" smooth="yes"/>
      <point x="437" y="0" type="line"/>
      <point x="437" y="530" type="line"/>
      <point x="291" y="530" type="line" smooth="yes"/>
      <point x="126" y="530"/>
      <point x="52" y="410"/>
      <point x="52" y="255" type="curve" smooth="yes"/>
      <point x="52" y="100"/>
      <point x="121" y="0"/>
    </contour>
    <contour>
      <point x="369" y="40" type="line"/>
      <point x="405" y="64" type="line"/>
      <point x="285" y="64" type="line" smooth="yes"/>
      <point x="170" y="64"/>
      <point x="120" y="145"/>
      <point x="120" y="260" type="curve" smooth="yes"/>
      <point x="120" y="375"/>
      <point x="170" y="466"/>
      <point x="285" y="466" type="curve" smooth="yes"/>
      <point x="405" y="466" type="line"/>
      <point x="369" y="490" type="line"/>
    </contour>
  </outline>
</glyph>
<glyph name="f_l" format="2">
  <advance width="561"/>
  <unicode hex="FB02"/>
  <outline>
    <contour>
      <point x="106" y="0" type="curve"/>
      <point x="185" y="0" type="line"/>
      <point x="184" y="64"/>
      <point x="183" y="128"/>
      <point x="183" y="193" type="curve" smooth="yes"/>
      <point x="183" y="400" type="line"/>
      <point x="175" y="506"/>
      <point x="186" y="573"/>
      <point x="226" y="612" type="curve" smooth="yes"/>
      <point x="251" y="637"/>
      <point x="276" y="649"/>
      <point x="320" y="661" type="curve"/>
      <point x="264" y="665" type="line"/>
      <point x="290" y="644" type="line" smooth="yes"/>
      <point x="325" y="616"/>
      <point x="364" y="599"/>
      <point x="393" y="599" type="curve" smooth="yes"/>
      <point x="422" y="599"/>
      <point x="441" y="616"/>
      <point x="443" y="638" type="curve"/>
      <point x="433" y="672"/>
      <point x="379" y="690"/>
      <point x="326" y="690" type="curve" smooth="yes"/>
      <point x="276" y="690"/>
      <point x="223" y="676"/>
      <point x="181" y="633" type="curve" smooth="yes"/>
      <point x="130" y="583"/>
      <point x="118" y="533"/>
      <point x="109" y="427" type="curve"/>
      <point x="136" y="441" type="line"/>
      <point x="32" y="427" type="line"/>
      <point x="32" y="388" type="line"/>
      <point x="109" y="388" type="line"/>
      <point x="109" y="193" type="line" smooth="yes"/>
      <point x="109" y="128"/>
      <point x="108" y="64"/>
    </contour>
    <contour>
      <point x="33" y="0" type="line"/>
      <point x="268" y="0" type="line"/>
      <point x="268" y="32" type="line"/>
      <point x="155" y="50" type="line"/>
      <point x="137" y="50" type="line"/>
      <point x="33" y="32" type="line"/>
    </contour>
    <contour>
      <point x="146" y="388" type="line"/>
      <point x="310" y="388" type="line"/>
      <point x="310" y="436" type="line"/>
      <point x="146" y="436" type="line"/>
    </contour>
    <contour>
      <point x="311" y="0" type="line"/>
      <point x="538" y="0" type="line"/>
      <point x="538" y="32" type="line"/>
      <point x="434" y="50" type="line"/>
      <point x="415" y="50" type="line"/>
      <point x="311" y="32" type="line"/>
    </contour>
    <contour>
      <point x="385" y="0" type="curve"/>
      <point x="464" y="0" type="line"/>
      <point x="462" y="64"/>
      <point x="461" y="128"/>
      <point x="461" y="193" type="curve" smooth="yes"/>
      <point x="461" y="542" type="line"/>
      <point x="465" y="673" type="line"/>
      <point x="452" y="680" type="line"/>
      <point x="388" y="646" type="line"/>
      <point x="388" y="193" type="line" smooth="yes"/>
      <point x="388" y="128"/>
      <point x="387" y="64"/>
    </contour>
  </outline>
</glyph>
<glyph name="u11FB0" format="2">
  <advance width="532"/>
  <unicode hex="11FB0"/>
  <outline>
    <contour>
      <point x="300" y="530" type="line"/>
      <point x="232" y="530" type="line"/>
      <point x="232" y="307" type="line"/>
      <point x="44" y="0" type="line"/>
      <point x="124" y="0" type="line"/>
      <point x="282" y="268" type="line"/>
      <point x="250" y="268" type="line"/>
      <point x="408" y="0" type="line"/>
      <point x="488" y="0" type="line"/>
      <point x="300" y="307" type="line"/>
    </contour>
  </outline>
</glyph>
